<?xml version="1.0" standalone="no"?>
<!DOCTYPE svg PUBLIC "-//W3C//DTD SVG 20010904//EN"
 "http://www.w3.org/TR/2001/REC-SVG-20010904/DTD/svg10.dtd">
<svg version="1.0" xmlns="http://www.w3.org/2000/svg"
 width="520.000000pt" height="520.000000pt" viewBox="0 0 520.000000 520.000000"
 preserveAspectRatio="xMidYMid meet">
<metadata>
Created by potrace 1.14, written by Peter Selinger 2001-2017
</metadata>
<g transform="translate(0.000000,520.000000) scale(0.100000,-0.100000)"
fill="#000000" stroke="none">
<path d="M2533 5180 c-29 -12 -63 -67 -63 -102 0 -14 7 -54 16 -87 8 -34 17
-69 19 -78 15 -69 48 -180 57 -191 18 -21 61 -10 75 18 24 51 76 277 77 334 1
54 -1 60 -31 85 -35 29 -106 39 -150 21z"/>
<path d="M2170 5038 c-79 -54 -85 -136 -14 -198 32 -28 255 -177 278 -186 24
-9 56 14 56 42 0 31 -125 274 -165 321 -41 48 -103 56 -155 21z"/>
<path d="M2871 5021 c-45 -49 -171 -289 -171 -325 0 -18 8 -30 25 -38 22 -10
33 -5 107 43 168 109 220 151 238 192 13 29 16 47 9 65 -24 63 -75 102 -133
102 -33 0 -45 -6 -75 -39z"/>
<path d="M1743 4741 c-115 -39 -230 -164 -263 -284 -38 -142 48 -301 208 -379
56 -28 77 -33 137 -33 87 1 132 21 202 92 42 43 53 61 59 98 5 40 3 50 -17 71
-41 44 -69 34 -164 -61 -77 -78 -88 -85 -124 -85 -96 0 -194 83 -217 185 -26
109 50 243 170 303 201 101 544 -111 606 -375 19 -84 1 -174 -48 -243 -29 -40
-39 -50 -138 -125 -40 -31 -74 -61 -77 -68 -8 -22 21 -76 47 -89 59 -26 167
42 244 154 135 198 93 462 -103 651 -83 81 -189 148 -287 183 -67 24 -174 27
-235 5z"/>
<path d="M3245 4748 c-22 -4 -83 -30 -135 -55 -81 -40 -109 -61 -190 -143 -71
-71 -104 -113 -128 -163 -36 -73 -38 -82 -52 -169 -24 -162 56 -343 196 -439
92 -63 177 -38 164 50 -2 19 -36 52 -105 101 -97 70 -128 113 -149 205 -41
176 82 384 286 483 133 65 229 73 325 26 129 -63 198 -220 149 -339 -44 -104
-173 -174 -249 -133 -12 6 -54 44 -93 85 -54 56 -77 73 -98 73 -32 0 -76 -40
-76 -70 0 -35 27 -86 67 -128 129 -133 313 -116 467 43 146 151 106 369 -94
516 -76 56 -189 79 -285 57z"/>
<path d="M2575 4603 c-30 -8 -55 -42 -55 -75 0 -36 40 -78 75 -78 14 0 37 11
50 25 33 32 33 75 -1 109 -27 26 -33 28 -69 19z"/>
<path d="M951 4413 c-29 -7 -66 -22 -82 -33 -91 -66 -125 -186 -78 -285 90
-192 363 -181 430 18 59 174 -95 345 -270 300z m126 -110 c85 -45 81 -188 -6
-235 -13 -7 -48 -13 -77 -13 -46 0 -57 4 -84 32 -60 61 -61 141 -4 198 47 47
106 53 171 18z"/>
<path d="M4095 4402 c-89 -42 -138 -120 -138 -217 1 -73 29 -132 81 -173 160
-125 376 -22 376 179 0 91 -40 159 -125 208 -40 23 -147 25 -194 3z m162 -95
c39 -21 73 -87 66 -130 -10 -71 -71 -127 -136 -127 -39 0 -88 25 -112 58 -31
42 -28 132 5 167 49 53 113 64 177 32z"/>
<path d="M2563 4237 c-13 -5 -23 -14 -23 -19 0 -5 -4 -7 -9 -4 -13 9 -22 -51
-11 -79 13 -34 57 -54 96 -44 37 11 66 49 60 81 -3 13 -5 26 -5 30 -1 11 -45
38 -67 42 -11 2 -29 -1 -41 -7z"/>
<path d="M1268 3959 c-37 -14 -55 -67 -36 -103 27 -51 80 -60 124 -23 36 32
36 83 -1 115 -28 24 -45 26 -87 11z"/>
<path d="M3836 3949 c-20 -15 -26 -29 -26 -57 0 -43 7 -55 37 -71 35 -18 68
-13 95 14 33 33 30 80 -7 112 -33 29 -64 29 -99 2z"/>
<path d="M1528 3814 c-87 -26 -155 -117 -162 -217 -3 -33 24 -108 51 -145 102
-136 317 -114 389 41 87 187 -80 379 -278 321z m135 -100 c115 -55 84 -238
-44 -257 -58 -9 -128 32 -149 88 -13 33 -4 101 17 130 38 52 113 69 176 39z"/>
<path d="M3527 3815 c-129 -33 -200 -171 -156 -301 17 -50 93 -126 142 -141
151 -46 308 63 310 217 0 51 -34 138 -66 168 -61 56 -149 78 -230 57z m127
-100 c72 -34 95 -136 46 -203 -79 -107 -250 -49 -250 85 0 98 111 162 204 118z"/>
<path d="M688 3696 c-99 -40 -191 -124 -235 -214 -79 -161 13 -424 205 -589
77 -67 195 -129 267 -142 52 -10 159 -8 210 4 61 13 155 67 207 118 57 56 92
97 82 97 -4 0 -2 6 4 13 16 19 18 68 4 94 -8 14 -26 25 -48 29 -42 8 -54 -1
-129 -102 -65 -86 -104 -117 -180 -142 -133 -45 -279 1 -404 127 -64 64 -128
168 -146 236 -14 54 -15 60 -16 113 -1 119 63 216 179 268 91 41 181 29 248
-33 100 -92 114 -182 40 -253 -17 -16 -52 -49 -78 -73 -62 -58 -66 -112 -9
-141 55 -28 137 13 203 104 84 113 55 286 -67 406 -100 98 -221 127 -337 80z"/>
<path d="M4285 3703 c-101 -41 -187 -128 -225 -230 -51 -137 -8 -266 115 -346
61 -40 92 -42 126 -7 51 50 37 79 -87 187 -60 52 -72 112 -37 183 79 160 274
185 406 53 57 -56 82 -116 84 -201 6 -250 -253 -513 -487 -496 -38 3 -84 15
-116 30 -53 25 -75 47 -176 174 -46 57 -63 66 -104 56 -32 -8 -55 -59 -44 -96
22 -78 116 -174 216 -222 74 -35 89 -38 179 -43 125 -7 244 36 366 132 147
115 260 331 253 485 -8 171 -186 345 -361 353 -45 2 -81 -2 -108 -12z"/>
<path d="M2421 3564 c-332 -59 -575 -264 -692 -585 -92 -253 -97 -484 -14
-749 2 -6 7 -19 43 -105 56 -139 176 -279 307 -360 64 -40 173 -91 215 -100 8
-2 41 -11 72 -19 231 -62 541 -28 778 86 82 39 186 112 202 141 9 16 12 117
13 380 l0 357 -365 -2 -365 -3 0 -105 0 -105 247 0 c136 -1 251 -4 255 -8 4
-5 8 -91 8 -193 1 -211 6 -199 -96 -259 -117 -68 -268 -104 -418 -99 -104 3
-136 8 -221 32 -246 71 -403 254 -470 547 -43 187 1 458 101 622 42 70 145
182 167 183 6 0 12 4 12 8 0 13 157 87 210 100 118 29 256 36 369 18 83 -14
196 -55 256 -95 33 -22 63 -37 66 -35 4 2 24 37 44 76 21 40 43 77 49 81 15
10 -40 57 -113 96 -61 32 -185 76 -241 85 -19 3 -46 8 -60 11 -54 12 -288 11
-359 -1z"/>
<path d="M210 3072 c-45 -22 -80 -75 -80 -120 0 -53 61 -104 222 -186 135 -70
136 -70 162 -52 33 21 30 36 -27 126 -153 239 -194 274 -277 232z"/>
<path d="M4885 3074 c-38 -20 -62 -49 -156 -191 -65 -98 -80 -127 -75 -147 11
-46 39 -42 174 27 175 89 186 97 211 132 26 39 27 80 1 122 -36 60 -103 84
-155 57z"/>
<path d="M63 2714 c-59 -29 -80 -110 -47 -179 25 -54 92 -70 184 -44 25 7 51
14 59 15 44 8 179 47 199 56 22 11 29 42 14 66 -7 10 -97 41 -167 57 -11 2
-49 11 -85 20 -92 23 -124 25 -157 9z"/>
<path d="M5039 2719 c-20 -5 -47 -10 -60 -12 -13 -3 -44 -10 -69 -17 -25 -7
-52 -14 -60 -16 -59 -14 -124 -34 -132 -42 -15 -15 -17 -50 -3 -62 12 -10 70
-29 135 -44 8 -2 42 -11 75 -20 165 -42 218 -36 248 27 20 41 21 67 7 119 -15
53 -74 81 -141 67z"/>
<path d="M629 2668 c-14 -6 -31 -24 -39 -41 -35 -79 83 -139 136 -69 28 36 7
95 -39 112 -16 5 -30 10 -31 9 -1 -1 -13 -6 -27 -11z"/>
<path d="M976 2665 c-10 -8 -22 -29 -26 -47 -14 -64 37 -109 105 -92 55 14 66
103 17 140 -22 18 -72 17 -96 -1z"/>
<path d="M4108 2658 c-23 -37 -28 -57 -19 -82 33 -86 151 -68 151 23 0 69 -98
112 -132 59z"/>
<path d="M4475 2654 c-31 -28 -33 -76 -5 -104 11 -11 25 -21 30 -21 6 -1 16
-2 23 -3 23 -4 68 25 77 49 28 73 -68 132 -125 79z"/>
<path d="M380 2449 c-135 -71 -202 -110 -215 -123 -55 -55 -44 -137 26 -187
85 -60 132 -29 266 176 75 115 87 142 75 162 -19 29 -57 23 -152 -28z"/>
<path d="M4667 2482 c-10 -10 -17 -24 -17 -32 0 -16 156 -254 191 -291 34 -36
59 -47 97 -43 73 9 128 77 119 146 -8 56 -30 72 -282 202 -80 41 -86 42 -108
18z"/>
<path d="M929 2444 c-182 -34 -359 -183 -449 -377 -88 -189 -72 -333 51 -460
124 -126 265 -161 394 -98 150 74 244 256 206 398 -24 87 -137 193 -205 193
-42 0 -76 -35 -76 -78 0 -25 11 -41 65 -89 109 -96 128 -148 86 -230 -62 -120
-205 -170 -320 -111 -146 73 -203 211 -157 373 47 160 152 282 305 353 109 50
212 47 311 -11 43 -25 64 -46 117 -117 82 -110 103 -122 158 -86 54 35 27 124
-66 215 -116 115 -256 156 -420 125z"/>
<path d="M4065 2447 c-22 -5 -47 -11 -55 -14 -8 -4 -17 -7 -20 -8 -36 -9 -121
-67 -164 -110 -64 -65 -88 -112 -84 -163 2 -31 9 -40 37 -54 46 -23 74 -8 130
71 81 116 136 157 236 179 223 47 508 -208 523 -467 4 -65 1 -84 -20 -131 -82
-183 -295 -240 -422 -114 -57 57 -84 144 -61 191 6 12 46 55 88 96 58 56 77
81 77 101 0 34 -41 76 -75 76 -63 0 -159 -81 -196 -165 -57 -130 10 -304 156
-405 130 -89 290 -62 424 71 133 132 149 276 53 479 -25 55 -88 144 -128 185
-74 74 -187 145 -272 170 -62 19 -172 25 -227 12z"/>
<path d="M1526 1826 c-54 -20 -85 -45 -121 -95 -41 -58 -48 -160 -15 -223 74
-144 253 -177 368 -69 142 131 58 378 -134 396 -39 3 -72 0 -98 -9z m139 -99
c29 -15 44 -33 60 -71 20 -47 19 -62 -5 -112 -31 -64 -117 -94 -182 -63 -58
27 -91 114 -67 175 28 75 120 109 194 71z"/>
<path d="M3493 1816 c-157 -73 -184 -281 -50 -390 164 -134 419 15 375 219
-33 153 -187 234 -325 171z m170 -95 c74 -46 87 -147 26 -209 -54 -55 -150
-55 -200 -1 -66 70 -43 180 45 219 46 21 85 18 129 -9z"/>
<path d="M2118 1424 c-9 -3 -23 -19 -31 -37 -21 -43 -5 -71 74 -127 139 -100
183 -172 184 -301 0 -68 -4 -84 -39 -155 -68 -138 -220 -263 -369 -303 -216
-57 -428 143 -367 347 33 109 173 192 253 151 12 -7 51 -43 87 -80 82 -87 108
-98 150 -63 39 34 40 75 1 136 -82 130 -233 169 -376 99 -241 -119 -283 -372
-94 -563 125 -127 277 -149 457 -67 120 55 267 185 326 289 17 30 31 57 32 60
0 3 6 17 11 31 29 69 37 209 17 283 -18 62 -46 126 -56 126 -5 0 -8 6 -8 13 0
17 -87 105 -131 133 -38 23 -92 36 -121 28z"/>
<path d="M2996 1423 c-32 -8 -88 -48 -127 -89 -105 -111 -155 -273 -125 -404
3 -14 9 -38 12 -55 8 -39 56 -135 90 -182 63 -86 191 -188 299 -238 169 -78
337 -47 456 83 90 98 129 216 106 318 -20 84 -113 186 -214 236 -58 28 -77 33
-138 32 -51 -1 -82 -7 -114 -23 -78 -40 -151 -133 -151 -191 0 -12 13 -34 30
-50 42 -39 68 -30 140 48 33 36 72 74 87 84 78 51 213 -17 260 -131 35 -83 5
-208 -68 -280 -47 -46 -130 -83 -198 -87 -55 -3 -192 30 -199 48 -2 4 -8 8
-14 8 -18 0 -103 63 -154 115 -134 137 -173 309 -100 449 21 42 60 81 139 140
84 63 99 86 85 127 -13 38 -53 54 -102 42z"/>
<path d="M1259 1377 c-42 -33 -46 -83 -8 -124 46 -48 133 -10 131 58 -2 60
-77 101 -123 66z"/>
<path d="M3836 1369 c-26 -20 -32 -50 -20 -95 7 -26 42 -44 79 -40 75 9 96
114 28 145 -35 16 -57 14 -87 -10z"/>
<path d="M963 1239 c-178 -32 -255 -240 -138 -376 90 -105 255 -109 347 -8
149 163 7 422 -209 384z m122 -116 c37 -28 58 -79 52 -130 -14 -124 -183 -162
-252 -56 -26 39 -25 115 1 151 45 61 140 78 199 35z"/>
<path d="M4159 1239 c-123 -19 -200 -103 -202 -223 -3 -182 190 -295 346 -202
78 46 111 103 111 196 0 146 -116 250 -255 229z m104 -114 c16 -10 36 -34 46
-54 59 -118 -61 -235 -186 -182 -46 20 -68 58 -68 121 0 62 20 98 70 124 37
19 101 15 138 -9z"/>
<path d="M2540 1092 c-25 -20 -33 -65 -18 -95 14 -28 66 -47 99 -35 59 21 75
99 26 133 -29 20 -80 19 -107 -3z"/>
<path d="M2545 725 c-16 -15 -25 -36 -25 -55 0 -38 39 -80 74 -80 35 0 76 44
76 81 0 37 -39 79 -75 79 -14 0 -37 -11 -50 -25z"/>
<path d="M2345 490 c-49 -32 -95 -63 -102 -69 -7 -6 -15 -11 -18 -11 -13 0
-96 -74 -107 -94 -30 -55 6 -135 74 -166 51 -23 83 -15 127 30 39 40 172 292
171 326 0 12 -10 25 -25 32 -14 7 -27 12 -28 12 -1 -1 -42 -27 -92 -60z"/>
<path d="M2728 543 c-39 -9 -33 -51 22 -162 44 -86 110 -202 125 -219 2 -2 21
-10 42 -17 63 -22 127 13 157 86 14 33 13 39 -6 78 -16 33 -43 58 -123 113
-131 90 -195 126 -217 121z"/>
<path d="M2562 477 c-22 -26 -94 -330 -88 -371 7 -56 42 -88 103 -93 84 -8
128 24 138 102 5 39 -67 338 -87 363 -14 16 -53 16 -66 -1z"/>
</g>
</svg>
