<svg width="174" height="181" viewBox="0 0 174 181" fill="none" xmlns="http://www.w3.org/2000/svg">
<g opacity="0.5" clip-path="url(#clip0)">
<path d="M7.22941 105.9C6.30836 88.1687 10.8055 70.589 20.0764 55.6786C20.9714 54.3285 20.6449 52.4791 19.3466 51.5481C18.0487 50.6171 16.2708 50.9568 15.3758 52.3073C15.3466 52.3514 15.3187 52.3963 15.2916 52.442C5.35661 68.4073 0.536488 87.2354 1.52249 106.227C1.60743 107.801 2.86108 109.033 4.37738 109.03H4.53726C6.11173 108.939 7.31685 107.538 7.22941 105.9Z" fill="#76B9AD"/>
<path d="M35.3242 54.3064C36.4105 53.1174 36.3645 51.2379 35.2215 50.1079C34.0784 48.9779 32.2717 49.0258 31.1854 50.2148C31.1283 50.2776 31.0737 50.3425 31.0219 50.4101C16.0095 68.4601 9.79978 92.6832 14.1781 116.113C14.4846 117.723 15.9877 118.769 17.5354 118.45C19.0832 118.131 20.0888 116.567 19.7822 114.957C15.7412 93.3306 21.4709 70.9711 35.3242 54.3064Z" fill="#76B9AD"/>
<path d="M172.49 96.2721C172.407 94.6321 171.06 93.3729 169.484 93.4598C167.907 93.5467 166.697 94.9469 166.78 96.5869C167.651 114.312 163.108 131.87 153.802 146.746C152.935 148.118 153.301 149.961 154.62 150.863C155.939 151.765 157.711 151.385 158.578 150.013C168.552 134.075 173.422 115.264 172.49 96.2721Z" fill="#76B9AD"/>
<path d="M159.857 86.3201C159.536 84.7146 158.024 83.6841 156.48 84.0186C154.965 84.3471 153.978 85.8706 154.253 87.4546C158.236 109.095 152.448 131.439 138.551 148.067C137.434 149.224 137.43 151.105 138.543 152.267C139.655 153.429 141.463 153.433 142.58 152.276C142.671 152.181 142.756 152.081 142.834 151.975C157.892 133.966 164.167 109.763 159.857 86.3201Z" fill="#76B9AD"/>
<path d="M126.855 43.8892V43.8862C137.932 50.7942 146.426 61.4091 150.947 73.9934C151.243 74.8301 151.884 75.4842 152.694 75.7753C152.993 75.8837 153.306 75.939 153.622 75.9386C154.151 75.9379 154.668 75.7849 155.118 75.4961C165.867 68.6301 169.23 53.9996 162.629 42.8186C156.029 31.6375 141.964 28.1392 131.216 35.0052C129.353 36.1949 127.664 37.6568 126.201 39.3455C125.142 40.5612 125.232 42.4392 126.401 43.5402C126.541 43.6716 126.693 43.7886 126.855 43.8892ZM147.573 38.0655C156.71 40.615 162.13 50.387 159.68 59.8916C158.854 63.0919 157.188 65.9892 154.867 68.2589C150.146 57.2162 142.573 47.7524 132.99 40.9194C137.178 37.7036 142.548 36.6523 147.573 38.0655Z" fill="#76B9AD"/>
<path d="M145.808 78.2154C140.832 64.3705 131.485 52.6927 119.298 45.0939C115.111 42.4805 110.64 40.3932 105.98 38.8753L107.484 33.0368L115.764 35.3443C116.006 35.4111 116.255 35.4452 116.506 35.4452C118.082 35.4445 119.36 34.114 119.359 32.474C119.359 31.1302 118.49 29.9542 117.242 29.6067L106.211 26.533L95.177 23.4594C93.6418 23.0852 92.1059 24.0763 91.7461 25.6733C91.4025 27.1997 92.2582 28.741 93.701 29.1939L101.98 31.5014L100.479 37.3369C95.718 36.2285 90.8476 35.711 85.97 35.7957C51.2749 36.407 23.6253 66.1601 24.2131 102.251C24.4993 119.831 31.583 136.55 43.8636 148.63L27.3738 162.639C26.1526 163.677 25.9717 165.548 26.9698 166.819C27.968 168.089 29.7669 168.277 30.9881 167.239L48.2659 152.559C61.7106 163.55 78.8924 168.342 95.8197 165.822L103.725 187.501C104.146 188.655 105.208 189.417 106.394 189.417C106.74 189.418 107.082 189.353 107.405 189.224C108.879 188.643 109.621 186.929 109.064 185.396L101.507 164.667C107.432 163.206 113.123 160.859 118.402 157.7C144.981 141.731 156.571 108.117 145.808 78.2154ZM142.774 113.609L137.367 112.1C135.843 111.675 134.278 112.615 133.869 114.2C133.461 115.784 134.365 117.413 135.888 117.838L141.269 119.337C138.819 127.346 134.749 134.717 129.333 140.954L125.353 136.814C124.219 135.675 122.412 135.707 121.316 136.887C120.248 138.038 120.248 139.863 121.316 141.013L125.293 145.15C119.305 150.809 112.219 155.063 104.512 157.623L103.056 151.981C102.648 150.396 101.082 149.456 99.5593 149.881C98.0362 150.306 97.1326 151.935 97.5408 153.519L98.9997 159.176C91.0931 160.935 82.9167 160.914 75.0187 159.114L76.4461 153.519C76.8543 151.935 75.9508 150.306 74.4277 149.881C72.9046 149.456 71.3387 150.396 70.9305 151.981L69.503 157.579C61.797 155.029 54.7054 150.792 48.7052 145.153L52.6849 141.013C53.7804 139.834 53.749 137.954 52.6149 136.814C51.5087 135.703 49.7547 135.703 48.6481 136.814L44.6712 140.951C39.2298 134.724 35.1405 127.351 32.6807 119.334L38.105 117.82C39.628 117.395 40.5316 115.766 40.1234 114.182C39.7151 112.598 38.1492 111.658 36.6261 112.082L31.2018 113.6C29.51 105.376 29.5296 96.8698 31.2589 88.654L36.6376 90.1389C36.8799 90.2057 37.1293 90.2399 37.3798 90.2399C38.9564 90.2391 40.234 88.9087 40.2333 87.2686C40.2326 85.9248 39.3643 84.7488 38.1164 84.4014L32.7092 82.8927C35.1684 74.8774 39.2501 67.5032 44.6798 61.2671L48.6595 65.4069C49.7936 66.5462 51.6011 66.5135 52.6963 65.3338C53.7647 64.183 53.7647 62.3585 52.6963 61.2077L48.7394 57.0916C49.396 56.4799 50.0327 55.8503 50.7179 55.2623C56.2795 50.5148 62.6556 46.9062 69.5087 44.6277L70.9562 50.2405C71.2905 51.5375 72.42 52.4399 73.7111 52.441C73.9616 52.4425 74.2114 52.4084 74.4534 52.3401C75.9765 51.9154 76.88 50.2869 76.4718 48.7029C76.4718 48.7025 76.4718 48.7025 76.4718 48.7021L75.0072 43.0893C78.6419 42.2604 82.3464 41.8068 86.0671 41.7351C86.4382 41.7351 86.8093 41.7351 87.1805 41.7351C91.1548 41.747 95.1167 42.198 98.9997 43.0804L97.5437 48.7229C97.1351 50.3069 98.0387 51.9358 99.5614 52.3605C99.5618 52.3605 99.5618 52.3605 99.5621 52.3605C99.8041 52.4288 100.054 52.4629 100.304 52.4615C101.596 52.4603 102.725 51.5579 103.059 50.2609L104.512 44.6184C112.221 47.1608 119.306 51.4168 125.276 57.0913L121.319 61.2073C120.185 62.347 120.154 64.2268 121.249 65.4065C122.345 66.5863 124.152 66.6189 125.286 65.4793C125.31 65.4555 125.333 65.431 125.356 65.4065L129.304 61.3202C134.147 66.8647 137.935 73.3138 140.467 80.3265C140.775 81.1877 141.038 82.0638 141.298 82.9339L135.896 84.4396C134.373 84.8635 133.469 86.4917 133.876 88.076C134.21 89.3742 135.341 90.2774 136.633 90.2781C136.883 90.2781 137.133 90.2439 137.375 90.1771L142.799 88.6626C144.506 96.8843 144.497 105.391 142.774 113.609Z" fill="#76B9AD"/>
<path d="M40.315 43.4819C40.7208 44.2648 41.4427 44.8176 42.2821 44.9876C42.4619 45.0228 42.6443 45.041 42.8273 45.041C43.4904 45.0407 44.1331 44.8012 44.6459 44.3639C54.6134 35.8159 67.0757 31.0413 79.9923 30.8219C81.5689 30.7982 82.8282 29.4495 82.8054 27.8095C82.8025 27.6131 82.7811 27.4175 82.7415 27.2256C80.1107 14.393 67.9775 6.20873 55.6411 8.94534C43.3048 11.682 35.4371 24.3033 38.0679 37.136C38.5222 39.3518 39.2791 41.4888 40.315 43.4819ZM43.8665 27.6027C46.3132 18.0966 55.7047 12.4537 64.8432 14.9988C69.872 16.3994 74.0156 20.103 76.1039 25.0636C64.5206 25.9972 53.4129 30.2528 44.015 37.3583C43.0896 34.1848 43.0382 30.8048 43.8665 27.6027Z" fill="#76B9AD"/>
<path d="M96.6016 63.8246C95.0793 63.4014 93.5155 64.3413 93.1073 65.9242L86.3212 92.2628C83.7457 92.4339 81.3951 93.8468 79.9662 96.0819L65.6746 92.0994C64.1498 91.6829 62.5889 92.6314 62.1885 94.2176C61.7909 95.7934 62.6877 97.4082 64.1987 97.837L78.4731 101.816C78.8153 106.724 82.9175 110.413 87.6352 110.057C92.3529 109.701 95.8997 105.434 95.5575 100.527C95.3676 97.8076 93.9916 95.3287 91.8226 93.7981L98.6058 67.4595C99.0137 65.8804 98.1179 64.2559 96.6016 63.8246ZM89.7617 101.884C89.7617 101.884 89.7617 101.884 89.7617 101.885H89.7503C89.342 103.469 87.7765 104.409 86.2534 103.984C84.7303 103.559 83.8271 101.93 84.2353 100.346C84.5704 99.0464 85.7042 98.1432 86.9982 98.1458C87.2497 98.1455 87.5003 98.1796 87.7433 98.2468C89.266 98.6715 90.1699 100.3 89.7617 101.884Z" fill="#76B9AD"/>
</g>
<defs>
<clipPath id="clip0">
<rect width="174" height="181" fill="white"/>
</clipPath>
</defs>
</svg>
