<svg width="193" height="193" viewBox="0 0 193 193" fill="none" xmlns="http://www.w3.org/2000/svg">
<path d="M39.492 102.073C44.3585 102.354 49.1678 104.807 52.6317 109.694C53.2137 110.518 53.5859 111.547 53.8387 112.538C54.125 113.672 53.4284 114.944 52.4504 115.401C51.4007 115.887 50.1602 116.03 49.2394 114.844C48.1325 113.424 47.0542 111.986 45.995 110.533C44.1391 107.984 41.6008 106.579 38.5426 105.989C35.9137 105.484 33.4088 105.965 31.071 107.089C24.5537 110.223 20.5746 115.434 19.2959 122.498C18.2606 128.233 22.4925 133.887 28.256 134.897C30.2456 135.245 32.1493 134.921 33.8716 133.859C35.5129 132.844 36.8011 131.448 37.6838 129.729C38.8718 127.414 38.533 125.332 36.6627 123.522C35.7801 122.67 34.8068 121.907 33.886 121.088C33.3898 120.65 32.8697 120.226 32.4594 119.712C31.6388 118.683 31.6149 117.621 32.2924 116.554C32.9842 115.458 34.0959 114.944 35.3364 115.234C35.928 115.372 36.5435 115.572 37.0492 115.896C40.055 117.816 42.2593 120.35 42.6457 124.022C42.7793 125.308 42.6648 126.699 42.3117 127.943C41.3146 131.486 39.2105 134.311 36.1236 136.34C32.4308 138.765 28.5709 138.884 24.6443 136.902C22.4591 135.797 20.5841 134.268 19.043 132.368C16.0897 128.729 15.3836 124.57 16.7481 120.193C19.0096 112.962 23.4468 107.418 30.2885 103.955C32.822 102.673 35.7276 102.064 39.492 102.073Z" fill="#76B9AD"/>
<path d="M38.2372 91.475C35.5368 91.4893 32.9317 90.9415 30.5319 89.7459C23.3323 86.1639 18.6614 80.3908 16.5764 72.6838C15.25 67.7728 16.5811 63.3668 20.3312 59.861C21.6338 58.6416 23.108 57.5365 24.6777 56.6982C28.5566 54.6262 32.4403 54.831 36.1332 57.2507C39.0913 59.1894 41.1285 61.8949 42.2163 65.2435C43.4711 69.1018 42.5742 72.5457 39.826 75.4942C38.6857 76.7136 37.3832 77.7377 35.7372 78.2378C34.2867 78.6808 33.0749 78.2616 32.2781 77.0327C31.5147 75.8514 31.6197 74.7034 32.7743 73.5745C33.8907 72.4838 35.1455 71.5359 36.2906 70.4689C38.7382 68.192 39.0435 65.7675 37.1733 62.9905C35.2219 60.0944 32.6073 58.3034 28.9526 58.5845C23.9287 58.9703 19.3054 63.7907 19.1957 68.8208C19.1671 70.2688 19.3007 71.7835 19.7158 73.1601C21.4143 78.738 24.7588 83.1059 29.9069 85.9401C32.9461 87.612 36.2047 88.2884 39.6542 87.3357C42.307 86.6022 44.4731 85.1875 46.0809 82.9154C47.121 81.4483 48.2375 80.0383 49.3396 78.6189C49.8119 78.0139 50.4656 77.8091 51.2337 77.8567C52.9561 77.9711 54.1823 79.3667 53.8292 81.0577C53.6336 82.0056 53.2328 82.9773 52.6937 83.7823C49.9646 87.8406 46.0762 90.1984 41.3384 91.2273C40.8279 91.3369 40.3126 91.4226 39.7926 91.4607C39.2821 91.5084 38.7573 91.475 38.2372 91.475Z" fill="#76B9AD"/>
<path d="M153.627 102.049C157.267 102.126 160.134 102.783 162.749 104.217C169.538 107.942 173.999 113.581 175.941 121.06C177.182 125.832 175.86 130.043 172.372 133.554C170.888 135.049 169.228 136.312 167.305 137.169C163.283 138.96 159.4 138.641 155.893 135.964C152.625 133.463 150.363 130.258 149.891 126.033C149.719 124.499 149.929 123.003 150.525 121.579C151.623 118.94 153.502 116.977 156.007 115.649C157.596 114.805 158.913 115.029 159.901 116.134C160.893 117.244 160.974 118.592 160.015 119.74C159.505 120.35 158.841 120.836 158.255 121.384C157.319 122.255 156.322 123.07 155.468 124.018C154.061 125.575 153.851 127.361 154.695 129.3C156.303 132.987 159.681 135.221 163.403 135.007C168.345 134.726 173.112 129.853 173.331 124.899C173.45 122.227 172.811 119.721 171.623 117.363C169.085 112.324 165.478 108.394 159.977 106.513C156.06 105.174 152.415 105.76 149.013 108.07C147.725 108.942 146.852 110.18 145.964 111.409C145.191 112.486 144.442 113.586 143.588 114.596C142.538 115.839 141.498 116.039 140.186 115.425C139.079 114.905 138.488 113.753 138.817 112.305C139.022 111.404 139.399 110.48 139.929 109.728C143.407 104.788 148.254 102.321 153.627 102.049Z" fill="#76B9AD"/>
<path d="M153.331 91.5226C148.159 91.2035 143.369 88.7266 139.891 83.8537C139.165 82.8391 138.66 81.7245 138.755 80.4146C138.836 79.3286 139.289 78.5141 140.329 78.0901C141.484 77.6138 142.486 77.7376 143.292 78.7046C144.442 80.0812 145.492 81.5483 146.546 83.0059C148.493 85.7019 151.155 87.1452 154.404 87.631C157.353 88.074 160.096 87.3547 162.611 85.921C168.169 82.7534 171.771 78.0235 173.102 71.7502C174.405 65.6103 170.259 59.6895 164.061 58.6559C161.857 58.2891 159.8 58.8036 158.002 60.1277C156.566 61.1852 155.487 62.5618 154.733 64.1861C153.798 66.2057 154.027 68.0825 155.526 69.721C156.384 70.6594 157.386 71.4739 158.321 72.3408C158.875 72.8553 159.495 73.3173 159.982 73.8889C160.855 74.913 160.883 75.9419 160.192 77.0279C159.486 78.1378 158.374 78.6379 157.152 78.3569C156.742 78.2616 156.327 78.114 155.955 77.9139C151.002 75.275 148.364 70.0497 150.649 64.3671C151.771 61.5806 153.555 59.2561 155.998 57.4984C159.438 55.0263 163.164 54.6404 167.043 56.3076C169.891 57.5318 172.224 59.4657 174.018 61.9902C176.533 65.5293 177.005 69.4781 175.712 73.5078C173.417 80.6671 168.994 86.1782 162.2 89.6125C159.691 90.8891 156.966 91.5131 153.331 91.5226Z" fill="#76B9AD"/>
<path d="M91.1011 39.031C90.8387 44.9804 88.3768 49.7246 83.5342 53.1685C82.704 53.7591 81.6973 54.1831 80.7097 54.4403C79.1781 54.8356 77.8852 53.9401 77.4462 52.4492C77.1743 51.5347 77.3317 50.7297 78.0569 50.1247C79.1447 49.215 80.2612 48.329 81.4253 47.5192C83.1143 46.3475 84.6411 45.0661 85.7098 43.2465C87.9284 39.4835 87.8472 35.6491 86.0915 31.8242C83.8586 26.9608 80.0369 23.6313 75.2515 21.4021C72.5463 20.1398 69.7075 19.5492 66.6778 20.1493C62.422 20.9877 57.3598 25.9653 58.1614 31.6813C58.6051 34.8346 61.6777 38.288 64.7932 38.9405C66.3057 39.2597 67.7609 39.0739 68.9346 37.9974C69.946 37.0733 70.8525 36.0349 71.7972 35.0442C72.3507 34.463 72.8373 33.8105 73.4433 33.2865C74.2591 32.572 75.2277 32.4148 76.22 32.9483C77.2458 33.5008 77.9376 34.3154 77.8565 35.5538C77.8279 36.0159 77.7182 36.497 77.5512 36.9304C76.158 40.5172 71.9594 43.4228 68.0996 43.418C67.1645 43.418 66.1959 43.2894 65.299 43.0227C61.5059 41.9081 58.5001 39.6646 56.4486 36.2969C54.3636 32.8769 54.3302 29.2853 56.1098 25.7129C57.7177 22.4881 60.0794 19.9159 63.2665 18.2202C66.3486 16.5816 69.6598 16.5006 72.9471 17.5105C77.9186 19.0347 82.0026 21.9832 85.5523 25.7224C88.3721 28.6994 90.1087 32.2148 90.8196 36.235C90.9723 37.1638 91.0105 38.1117 91.1011 39.031Z" fill="#76B9AD"/>
<path d="M101.626 38.5118C101.927 33.7866 103.678 29.6616 106.789 26.1368C110.333 22.1166 114.599 19.0966 119.761 17.4962C122.156 16.7531 124.632 16.6007 127.051 17.3533C128.301 17.7391 129.556 18.2821 130.635 19.0156C133.893 21.2306 136.398 24.0981 137.476 27.9754C138.488 31.6241 137.639 34.906 135.21 37.783C133.345 39.9932 131.097 41.6889 128.368 42.7273C122.371 45.0089 117.361 41.3888 115.248 37.2257C114.398 35.5586 114.737 34.1153 116.049 33.1817C116.994 32.5101 118.029 32.4291 118.96 33.1055C119.561 33.5437 120.052 34.1439 120.572 34.6869C121.617 35.7824 122.576 36.9685 123.697 37.9736C125.138 39.2644 126.875 39.3597 128.64 38.6976C134.122 36.6351 136.255 30.5523 133.182 25.5938C130.935 21.9689 127.738 19.7778 123.33 19.9445C121.794 20.0016 120.2 20.3303 118.754 20.8686C114.427 22.4738 110.834 25.146 108.196 28.9662C106.264 31.7622 105.142 34.8488 105.438 38.3165C105.72 41.6413 107.113 44.404 109.78 46.4665C110.529 47.0476 111.345 47.5383 112.104 48.1051C112.9 48.7005 113.697 49.3007 114.422 49.9771C115.415 50.9011 115.553 51.8871 114.99 53.0541C114.522 54.0211 113.425 54.6975 112.285 54.4974C111.416 54.345 110.505 54.064 109.77 53.5924C105.238 50.682 102.666 46.4713 101.817 41.1983C101.683 40.3123 101.688 39.4073 101.626 38.5118Z" fill="#76B9AD"/>
<path d="M101.664 156.77C101.64 153.998 101.898 151.94 102.652 149.968C104.059 146.291 106.24 143.204 109.623 141.056C110.558 140.461 111.545 140.027 112.69 140.094C113.869 140.161 114.756 140.751 115.1 141.771C115.453 142.833 115.434 143.847 114.46 144.605C113.191 145.591 111.932 146.605 110.591 147.496C108.454 148.916 106.97 150.816 106.092 153.198C105.133 155.784 105.171 158.399 105.968 161.01C106.812 163.777 108.272 166.202 110.31 168.255C113.272 171.232 116.679 173.485 120.839 174.433C127.214 175.885 133.402 171.865 134.471 165.601C135.224 161.162 132.147 156.575 127.743 155.594C126.197 155.251 124.79 155.608 123.635 156.651C122.657 157.537 121.794 158.552 120.887 159.519C120.338 160.105 119.847 160.757 119.241 161.281C118.43 161.981 117.481 162.215 116.474 161.662C115.396 161.071 114.68 160.219 114.833 158.923C114.904 158.328 115.071 157.699 115.353 157.175C118.096 152.112 123.607 149.587 129.361 152.269C131.994 153.498 134.213 155.284 135.878 157.642C138.76 161.724 138.488 166.597 135.549 170.779C134.843 171.784 134.046 172.742 133.182 173.613C129.718 177.133 125.534 178.377 120.692 177.367C114.627 176.1 105.157 169.85 102.571 160.976C102.118 159.39 101.874 157.747 101.664 156.77Z" fill="#76B9AD"/>
<path d="M91.0868 155.108C90.9389 160.514 89.1497 164.858 85.8672 168.574C82.8137 172.032 79.1686 174.728 74.8698 176.466C72.0501 177.61 69.1254 178.067 66.0958 177.405C65.7236 177.324 65.3515 177.243 64.9984 177.114C59.9172 175.218 56.7062 171.541 55.1985 166.435C54.2443 163.196 55.0411 160.133 56.9972 157.413C58.815 154.893 61.2101 153.045 64.1062 151.926C70.1655 149.592 75.2133 152.983 77.4367 157.451C78.2716 159.128 77.8995 160.538 76.5254 161.457C75.6094 162.072 74.6456 162.176 73.7438 161.51C73.1427 161.067 72.6417 160.485 72.1169 159.942C71.0386 158.818 70.0462 157.599 68.8821 156.565C67.4364 155.279 65.7141 155.189 63.944 155.894C58.4238 158.085 56.3913 164.31 59.5927 169.302C61.5966 172.422 64.3543 174.409 68.1473 174.733C70.0701 174.899 71.9499 174.571 73.7295 173.889C79.369 171.727 83.6964 168.069 86.206 162.505C88.6106 157.175 87.2604 151.173 82.3461 147.729C81.0293 146.805 79.6982 145.886 78.4672 144.852C77.1647 143.757 77.0073 142.799 77.68 141.475C78.2144 140.418 79.4453 139.827 80.8528 140.18C81.7498 140.403 82.661 140.808 83.4196 141.337C88.3243 144.786 90.8387 149.544 91.0868 155.108Z" fill="#76B9AD"/>
<path d="M141.923 133.492C141.942 138.236 138.001 142.114 133.163 142.118C128.511 142.118 124.666 138.27 124.637 133.587C124.609 128.776 128.459 124.913 133.306 124.899C137.996 124.875 141.904 128.776 141.923 133.492ZM138.488 133.497C138.493 130.739 136.098 128.343 133.316 128.324C130.539 128.305 128.03 130.663 128.072 133.416C128.115 136.212 129.976 138.56 133.302 138.613C136.15 138.655 138.488 136.288 138.488 133.497Z" fill="#76B9AD"/>
<path d="M133.221 68.5777C128.449 68.5634 124.628 64.6765 124.628 59.837C124.628 55.1642 128.545 51.3584 133.33 51.3822C138.144 51.406 141.961 55.2833 141.933 60.1038C141.904 64.5241 138.054 68.7253 133.221 68.5777ZM133.302 54.8356C130.449 54.7975 128.063 57.0839 128.049 59.8704C128.034 62.6617 130.377 65.0576 133.163 65.0957C136.069 65.1386 138.445 62.8379 138.483 59.9418C138.516 57.1648 136.198 54.8784 133.302 54.8356Z" fill="#76B9AD"/>
<path d="M37.6313 29.3091C42.2784 29.2948 46.31 33.2531 46.1955 37.9307C46.0571 43.6133 41.6868 46.5189 37.4739 46.5284C32.803 46.5427 28.9097 42.6225 28.8954 37.9259C28.8811 33.2007 32.8125 29.3234 37.6313 29.3091ZM37.5645 32.8578C34.3393 32.7435 32.3783 35.4585 32.3497 37.8878C32.3163 40.6696 34.6732 43.156 37.4453 43.0989C40.4797 43.0322 42.6839 40.9316 42.7269 37.9307C42.765 35.0489 40.5036 32.8721 37.5645 32.8578Z" fill="#76B9AD"/>
<path d="M51.062 133.368C51.081 128.686 54.8932 124.918 59.6166 124.904C64.4259 124.889 68.2475 128.752 68.238 133.62C68.2284 138.279 64.2493 142.151 59.5211 142.109C54.8216 142.071 51.0429 138.16 51.062 133.368ZM64.7789 133.587C64.7884 130.691 62.5508 128.405 59.6834 128.386C56.7825 128.367 54.5258 130.596 54.5067 133.492C54.4876 136.331 56.8302 138.67 59.669 138.65C62.4506 138.636 64.7694 136.336 64.7789 133.587Z" fill="#76B9AD"/>
<path d="M37.4596 164.072C32.7171 164.058 28.905 160.209 28.8859 155.451C28.8716 151.316 32.2829 146.839 37.7029 146.948C42.455 147.044 46.2337 150.84 46.2241 155.637C46.2098 160.281 42.2546 164.091 37.4596 164.072ZM37.5693 150.383C34.6065 150.392 32.3211 152.683 32.3641 155.598C32.407 158.428 34.7019 160.638 37.6075 160.633C40.4416 160.628 42.8128 158.266 42.7603 155.494C42.7031 152.645 40.4034 150.373 37.5693 150.383Z" fill="#76B9AD"/>
<path d="M163.937 38.0831C163.908 42.7606 160.091 46.5236 155.363 46.5236C150.554 46.5236 146.742 42.6511 146.761 37.783C146.78 33.134 150.788 29.2472 155.502 29.3091C160.206 29.3758 163.966 33.2912 163.937 38.0831ZM160.492 37.8592C160.473 35.0346 158.116 32.7434 155.287 32.7958C152.496 32.8482 150.225 35.1203 150.225 37.864C150.225 40.7553 152.639 43.1798 155.44 43.1036C158.297 43.0226 160.507 40.7315 160.492 37.8592Z" fill="#76B9AD"/>
<path d="M51.0668 59.7989C51.1049 55.0928 54.9886 51.3441 59.7836 51.3774C64.5261 51.4108 68.2714 55.2786 68.2237 60.0657C68.176 64.948 64.0871 68.6682 59.4257 68.6253C54.8168 68.5777 51.0286 64.5479 51.0668 59.7989ZM64.7694 59.9752C64.7694 57.0838 62.5604 54.8689 59.6548 54.8546C56.7873 54.8356 54.5067 57.0886 54.502 59.9371C54.4972 62.776 56.8207 65.1291 59.6118 65.1052C62.465 65.0814 64.7694 62.7903 64.7694 59.9752Z" fill="#76B9AD"/>
<path d="M163.932 155.541C163.937 160.285 160.115 164.067 155.32 164.077C150.549 164.086 146.756 160.271 146.775 155.484C146.794 150.635 150.592 146.939 155.535 146.953C160.201 146.972 163.932 150.787 163.932 155.541ZM155.454 150.373C152.563 150.368 150.249 152.626 150.234 155.46C150.22 158.351 152.448 160.6 155.358 160.628C158.207 160.657 160.516 158.351 160.502 155.484C160.487 152.683 158.207 150.378 155.454 150.373Z" fill="#76B9AD"/>
<path d="M96.502 0.905601C99.6319 0.910364 101.421 2.79187 100.996 5.87372C100.729 7.83143 100.185 9.7558 99.713 11.6802C99.2979 13.3807 98.8208 15.0621 98.3437 16.7483C98.2196 17.1961 98.0813 17.6772 97.8236 18.0535C97.1223 19.0728 95.7673 19.0347 95.085 18.0106C94.9323 17.7772 94.8083 17.5104 94.7415 17.2389C93.835 13.7141 92.9428 10.1893 92.0458 6.65966C92.0124 6.52153 91.9647 6.38815 91.9456 6.24525C91.4637 3.15388 93.21 0.738885 96.502 0.905601Z" fill="#76B9AD"/>
<path d="M78.3814 10.4131C78.3909 8.59356 79.9654 6.55964 81.8357 5.87848C83.4721 5.28307 85.3043 5.78322 86.5638 7.26937C87.1077 7.91241 87.561 8.65072 87.9618 9.39856C89.4027 12.1136 90.7958 14.8525 92.2081 17.5819C92.3178 17.7915 92.4371 18.0011 92.5182 18.2202C92.8665 19.1395 92.709 19.8921 92.0697 20.4065C91.4351 20.9162 90.6336 20.9495 89.832 20.4208C87.7757 19.0728 85.7337 17.6962 83.6916 16.3339C82.8662 15.7814 82.0074 15.2669 81.225 14.6668C80.5522 14.1523 79.9177 13.5712 79.3499 12.9425C78.6915 12.2184 78.3432 11.3372 78.3814 10.4131Z" fill="#76B9AD"/>
<path d="M187.721 84.0013C187.678 84.6682 187.363 85.6161 186.6 86.3163C185.979 86.8879 185.302 87.4357 184.562 87.831C181.557 89.441 178.513 90.9891 175.483 92.5562C175.273 92.6658 175.058 92.7753 174.834 92.8468C174.066 93.0992 173.384 92.9182 172.921 92.318C172.444 91.6988 172.353 91.0319 172.754 90.3317C172.825 90.2079 172.921 90.0983 172.997 89.984C174.696 87.4166 176.366 84.8301 178.107 82.2913C178.746 81.3625 179.467 80.4431 180.316 79.7191C182.081 78.2139 184.295 78.4283 185.937 80.0764C186.929 81.0719 187.783 82.1246 187.721 84.0013Z" fill="#76B9AD"/>
<path d="M192.416 96.7384C192.416 99.0248 191.633 100.501 189.835 100.978C188.775 101.259 187.544 101.34 186.48 101.102C182.974 100.316 179.505 99.363 176.027 98.4341C174.939 98.1436 174.524 97.5529 174.572 96.6336C174.615 95.8 174.996 95.257 175.917 95.0188C179.581 94.0662 183.241 93.0945 186.934 92.2656C187.855 92.0608 188.938 92.1847 189.858 92.4562C191.614 92.9849 192.416 94.471 192.416 96.7384Z" fill="#76B9AD"/>
<path d="M187.745 110.266C187.373 112.114 186.232 113.624 184.329 114.439C182.53 115.206 180.989 114.534 179.701 113.219C179.204 112.715 178.751 112.157 178.36 111.571C176.542 108.856 174.748 106.127 172.954 103.398C172.391 102.54 172.387 101.859 172.897 101.178C173.408 100.501 174.2 100.259 175.049 100.692C178.465 102.44 181.886 104.174 185.235 106.046C186.729 106.87 187.773 108.18 187.745 110.266Z" fill="#76B9AD"/>
<path d="M5.24028 109.985C5.23074 108.708 5.63629 107.742 6.44738 107.032C7.22507 106.355 8.07909 105.722 8.98561 105.236C11.7004 103.774 14.4485 102.388 17.1919 100.982C18.5278 100.297 19.2674 100.335 19.9019 101.063C20.546 101.802 20.4744 102.559 19.6777 103.755C18.0507 106.203 16.4667 108.675 14.8016 111.1C14.1623 112.029 13.4466 112.948 12.6021 113.686C10.7843 115.263 8.69457 115.087 7.01037 113.381C6.03706 112.381 5.13531 111.352 5.24028 109.985Z" fill="#76B9AD"/>
<path d="M5.14481 101.264C2.24875 101.321 0.626576 99.8393 0.483443 97.1099C0.292599 93.5803 2.53979 91.5464 6.05609 92.2466C8.69928 92.7753 11.2948 93.5327 13.9141 94.1948C14.9256 94.452 15.9371 94.7044 16.9342 95.0045C17.8884 95.2903 18.3322 95.8905 18.3226 96.7431C18.3131 97.5529 17.9314 98.134 17.0153 98.3817C13.4465 99.3391 9.86821 100.254 6.28988 101.163C5.87956 101.268 5.43585 101.24 5.14481 101.264Z" fill="#76B9AD"/>
<path d="M78.3861 183.073C78.3814 181.863 78.8919 180.853 79.7364 180.044C80.4139 179.396 81.1725 178.81 81.9597 178.286C84.5218 176.581 87.1077 174.914 89.6889 173.232C90.6192 172.627 91.5114 172.627 92.1603 173.218C92.7853 173.789 92.8855 174.533 92.3607 175.557C90.8292 178.548 89.2786 181.53 87.7136 184.497C87.1363 185.598 86.3873 186.569 85.3042 187.241C84.2307 187.903 83.0904 188.117 81.912 187.622C80.3709 186.979 78.1905 185.121 78.3861 183.073Z" fill="#76B9AD"/>
<path d="M102.194 172.77C102.37 172.841 102.795 172.932 103.134 173.156C105.949 174.999 108.769 176.833 111.541 178.738C112.347 179.296 113.077 180.01 113.702 180.768C114.494 181.725 114.79 182.906 114.356 184.107C113.673 186.007 112.347 187.341 110.353 187.77C108.458 188.179 107.06 187.222 105.992 185.736C105.605 185.197 105.267 184.626 104.961 184.04C103.558 181.353 102.17 178.662 100.796 175.961C100.586 175.547 100.381 175.095 100.319 174.642C100.171 173.561 100.858 172.813 102.194 172.77Z" fill="#76B9AD"/>
<path d="M96.4782 192.538C92.709 192.781 91.4017 189.704 91.9743 187.208C92.8187 183.521 93.7921 179.858 94.751 176.195C95.0182 175.18 95.5526 174.818 96.4734 174.813C97.4181 174.813 97.9095 175.137 98.1863 176.181C99.1166 179.653 99.9993 183.14 100.896 186.626C100.968 186.898 100.973 187.188 101.016 187.47C101.412 190.127 99.9325 192.766 96.4782 192.538Z" fill="#76B9AD"/>
<path d="M109.594 5.62134C111.77 5.7166 113.153 7.05033 114.136 8.78417C114.976 10.2703 114.527 12.0089 113.134 13.4427C112.609 13.9809 112.008 14.462 111.388 14.8859C108.687 16.7198 105.973 18.5299 103.244 20.3209C102.871 20.5638 102.385 20.7591 101.951 20.7686C100.891 20.7924 100.171 19.9636 100.3 18.9157C100.357 18.4584 100.543 18.0011 100.758 17.5867C102.137 14.8955 103.501 12.1899 104.952 9.53677C105.491 8.55076 106.187 7.63621 106.927 6.78835C107.59 6.01193 108.521 5.62134 109.594 5.62134Z" fill="#76B9AD"/>
<path d="M5.21162 83.5535C5.40723 81.429 6.63818 79.9619 8.45121 79.0712C10.1974 78.209 11.7958 78.8473 13.0935 80.1668C13.7185 80.8003 14.2767 81.5243 14.7729 82.2674C16.4905 84.8205 18.17 87.4022 19.8589 89.9696C20.4983 90.9413 20.4983 91.7416 19.8637 92.418C19.2625 93.0562 18.5612 93.1563 17.5259 92.6275C14.5725 91.1176 11.6192 89.6124 8.70407 88.031C7.84527 87.5641 7.06281 86.9116 6.3376 86.2447C5.59331 85.5445 5.1973 84.63 5.21162 83.5535Z" fill="#76B9AD"/>
<path d="M35.4556 96.7384C35.4413 95.0426 36.6818 93.7518 38.3708 93.7041C39.9977 93.6565 41.3432 94.9617 41.3957 96.6336C41.4434 98.2769 40.1361 99.7154 38.5521 99.7583C36.844 99.8059 35.4747 98.4674 35.4556 96.7384Z" fill="#76B9AD"/>
<path d="M96.4495 41.727C94.7797 41.7222 93.4056 40.3742 93.4294 38.7785C93.4581 37.1637 94.8417 35.8491 96.4973 35.8681C98.1671 35.8872 99.5269 37.2161 99.5174 38.8261C99.5126 40.4218 98.1242 41.7317 96.4495 41.727Z" fill="#76B9AD"/>
<path d="M48.7289 141.49C50.5038 141.542 51.7491 142.89 51.6584 144.643C51.5773 146.196 50.1841 147.439 48.5906 147.382C46.9541 147.329 45.6659 145.924 45.7375 144.276C45.8043 142.671 47.1211 141.442 48.7289 141.49Z" fill="#76B9AD"/>
<path d="M141.331 48.9863C141.327 47.3191 142.639 46.0378 144.328 46.0616C145.907 46.0854 147.181 47.3763 147.209 48.9863C147.238 50.6487 145.907 52.0062 144.27 51.9871C142.562 51.9681 141.336 50.7153 141.331 48.9863Z" fill="#76B9AD"/>
<path d="M96.5115 157.523C94.7891 157.542 93.4628 156.313 93.4437 154.679C93.4198 153.06 94.7414 151.778 96.4495 151.769C98.1766 151.754 99.5125 152.993 99.5221 154.608C99.5221 156.256 98.2291 157.508 96.5115 157.523Z" fill="#76B9AD"/>
<path d="M48.6716 46.0616C50.2604 46.0378 51.6058 47.3001 51.6583 48.8815C51.7155 50.582 50.3701 51.9776 48.6477 51.9919C47.1019 52.0062 45.7755 50.682 45.7326 49.0863C45.6896 47.4573 47.016 46.0902 48.6716 46.0616Z" fill="#76B9AD"/>
<path d="M157.396 96.7954C157.367 98.4912 156.055 99.7963 154.428 99.763C152.815 99.7296 151.57 98.3625 151.599 96.6573C151.627 94.9425 152.916 93.6612 154.562 93.7088C156.217 93.7564 157.429 95.0759 157.396 96.7954Z" fill="#76B9AD"/>
<path d="M147.171 144.481C147.162 146.158 145.869 147.382 144.161 147.344C142.529 147.305 141.327 146.077 141.336 144.443C141.346 142.714 142.543 141.523 144.28 141.513C145.969 141.499 147.185 142.747 147.171 144.481Z" fill="#76B9AD"/>
<path d="M167.926 99.5201C166.37 99.5439 165.101 98.3578 165.044 96.8288C164.982 95.2807 166.284 93.928 167.864 93.8994C169.39 93.8708 170.831 95.2045 170.884 96.6954C170.936 98.1244 169.5 99.4962 167.926 99.5201Z" fill="#76B9AD"/>
<path d="M99.2741 168.145C99.255 169.698 97.8905 171.117 96.4353 171.103C95.0135 171.089 93.6251 169.588 93.6346 168.073C93.6442 166.516 95.0087 165.144 96.5164 165.168C98.0956 165.196 99.2979 166.492 99.2741 168.145Z" fill="#76B9AD"/>
<path d="M99.2788 25.4604C99.274 26.9894 98.0097 28.2802 96.5068 28.2945C94.9753 28.3136 93.6107 26.9275 93.6346 25.3794C93.6632 23.8409 95.0373 22.4357 96.5163 22.4404C97.9954 22.4547 99.2836 23.8599 99.2788 25.4604Z" fill="#76B9AD"/>
<path d="M24.9401 99.5154C23.337 99.5011 21.982 98.1816 22.0059 96.6574C22.0297 95.1998 23.5326 93.847 25.0785 93.8899C26.5957 93.9328 27.8457 95.257 27.8075 96.7908C27.7694 98.3436 26.5241 99.5297 24.9401 99.5154Z" fill="#76B9AD"/>
<path d="M118.831 67.4965C117.566 69.8114 116.369 72.0073 115.186 74.1794C115 74.1365 114.895 74.1413 114.837 74.0889C111.23 71.0594 107.003 69.5495 102.385 69.0112C97.9142 68.492 93.4771 68.5777 89.1306 69.9067C81.3537 72.2836 75.9242 77.3041 73.0902 84.8444C70.1034 92.7896 70.0605 100.954 73.0615 108.89C76.5826 118.207 83.558 123.47 93.4533 124.818C99.5221 125.647 105.381 124.837 110.939 122.246C112.514 121.512 113.931 120.441 115.41 119.507C115.873 119.216 116.116 118.821 116.111 118.216C116.083 113.715 116.087 109.213 116.073 104.712C116.073 104.631 116.011 104.545 115.93 104.355C109.728 104.355 103.482 104.355 97.127 104.355C97.127 101.668 97.127 99.0819 97.127 96.4002C106.078 96.4002 115.062 96.4002 124.122 96.4002C124.146 96.8527 124.179 97.2718 124.179 97.6862C124.184 105.836 124.165 113.986 124.203 122.136C124.208 123.084 123.912 123.722 123.22 124.332C119.666 127.457 115.524 129.467 111.063 130.934C102.619 133.706 94.0783 133.997 85.5666 131.539C75.9385 128.762 68.9059 122.746 65.0938 113.453C60.7855 102.94 60.5898 92.1799 64.817 81.6006C68.1568 73.2458 73.9012 66.8868 82.327 63.2667C87.7899 60.9184 93.5725 60.2991 99.4696 60.6516C103.511 60.8945 107.466 61.6043 111.254 63.1047C113.645 64.0526 115.901 65.2482 117.972 66.7725C118.225 66.963 118.463 67.1869 118.831 67.4965Z" fill="#FCFDFD"/>
</svg>
