<svg width="107" height="166" viewBox="0 0 107 166" fill="none" xmlns="http://www.w3.org/2000/svg">
<g opacity="0.8">
<path d="M97.0866 92.4547C93.272 88.6403 87.0652 88.6403 83.251 92.4547L77.4771 98.2287C75.9246 99.7813 73.3976 99.7815 71.8451 98.2287C70.2924 96.676 70.2924 94.1493 71.8449 92.5967L81.5788 82.863C83.4267 81.0152 84.4442 78.5584 84.4442 75.9451C84.4442 73.3319 83.4265 70.8751 81.5788 69.0275C77.7644 65.2127 71.5576 65.2131 67.7432 69.0275L54.685 82.0857C54.5052 81.9695 54.3192 81.8623 54.1276 81.7643V81.5974V74.6674V74.5008C56.1954 73.444 57.6119 71.2949 57.6119 68.8133C57.6119 66.3317 56.1954 64.1825 54.1276 63.1258V56.2921H61.651L63.5753 47.7336H57.2851L58.5008 36H43.9536L45.1692 47.734H38.8791L40.8034 56.2925H48.3268V63.1262C46.259 64.1829 44.8423 66.3321 44.8423 68.8137C44.8423 71.2952 46.259 73.4444 48.3268 74.5011V74.6678V81.5978V81.7645C46.259 82.8212 44.8423 84.9704 44.8423 87.452C44.8423 88.1715 44.9631 88.8623 45.1826 89.5078H42.6722V95.3085H45.8495V103.191C39.4574 105.415 34.8698 111.493 34.8698 118.643V129.199H30V135H72.4546V129.199H67.5846V118.643C67.5846 111.493 62.9968 105.415 56.6049 103.191V95.3085H59.7824V89.5078H57.272C57.4914 88.8625 57.6121 88.1715 57.6121 87.452C57.6121 87.4226 57.6104 87.3938 57.61 87.3646L71.8451 73.1294C73.3982 71.5768 75.9248 71.5768 77.4773 73.1294C78.2294 73.8816 78.6436 74.8817 78.6436 75.9453C78.6436 77.009 78.2292 78.0091 77.4773 78.7614L67.7434 88.4951C63.929 92.3095 63.929 98.5162 67.7434 102.331C71.5578 106.145 77.7646 106.145 81.579 102.331L87.3529 96.5569C88.9054 95.0042 91.4324 95.004 92.9849 96.5569C94.5376 98.1095 94.5376 100.636 92.9851 102.189L89.2619 105.912L86.988 103.638L82.8863 107.74L85.1602 110.014L81.2545 113.919L85.3563 118.021L89.2617 114.115L91.5356 116.389L95.6374 112.287L93.3635 110.013L97.0866 106.29C100.901 102.476 100.901 96.2693 97.0866 92.4547Z" fill="#76B9AD"/>
</g>
<path d="M63.383 7.25287C63.2839 6.97162 63.0181 6.7834 62.7198 6.7834C60.9713 6.7834 59.2686 7.06099 57.6898 7.59319C58.8993 5.23856 60.395 3.726 60.4128 3.70821C60.6145 3.5074 60.6752 3.2047 60.5666 2.94159C60.4579 2.67848 60.2014 2.50685 59.9167 2.50685C57.8261 2.50685 55.8408 3.24816 54.1963 4.61988C53.914 3.60295 53.4983 2.61991 52.9888 1.77729C52.4987 0.966445 51.7567 0 51.0057 0C50.1964 0 49.4452 0.972352 48.9575 1.78805C48.465 2.61183 48.0637 3.58348 47.7901 4.59942C46.1504 3.24091 44.1747 2.50678 42.0946 2.50678C41.8102 2.50678 41.554 2.67834 41.4453 2.9411C41.3365 3.20386 41.3969 3.50655 41.598 3.70765C41.6162 3.72586 43.1139 5.24046 44.3239 7.59769C42.7412 7.06254 41.0336 6.78333 39.2802 6.78333C38.9819 6.78333 38.7161 6.97148 38.617 7.2528C38.5179 7.53412 38.607 7.84737 38.8394 8.03433C38.8474 8.0408 39.6573 8.6959 40.6936 9.83714C40.9547 10.1246 41.3994 10.146 41.6869 9.88495C41.9744 9.62395 41.9958 9.17923 41.7347 8.89179C41.5454 8.68331 41.3631 8.48995 41.1908 8.31248C42.6293 8.49973 43.9897 8.89812 45.2243 9.4789C45.3231 9.56855 45.4453 9.6281 45.5762 9.65116C47.267 10.5116 48.7015 11.725 49.7469 13.2188H48.9776C47.6359 13.2188 46.3658 13.5309 45.2357 14.0858C45.0156 13.6043 44.7665 13.12 44.492 12.6422C44.2988 12.3055 43.8691 12.1892 43.5321 12.3826C43.1954 12.576 43.0793 13.0058 43.2726 13.3425C43.5529 13.8305 43.8029 14.3247 44.0202 14.8136C41.8645 16.3612 40.4574 18.8888 40.4574 21.739V27.4799C40.4573 32.1779 44.2794 36 48.9775 36H53.0309C57.7289 36 61.551 32.1779 61.551 27.4798V21.7389C61.551 18.8855 60.1409 16.3554 57.9811 14.8083C59.7591 10.8097 63.1268 8.06161 63.1606 8.03433C63.3929 7.84737 63.482 7.53412 63.383 7.25287ZM58.2271 4.11328C57.471 5.10673 56.5039 6.5823 55.7804 8.39201C55.647 8.45986 55.5149 8.52954 55.3841 8.60154C54.0271 9.34875 52.8408 10.3046 51.8708 11.423C52.5278 7.76763 55.0405 4.87934 58.2271 4.11328ZM50.9817 1.46278C51.4377 1.85646 52.5702 3.45973 53.025 5.77195C52.1482 6.78305 51.4677 7.95459 51.0056 9.22774C50.5403 7.94552 49.8534 6.76624 48.9677 5.7503C49.3984 3.48623 50.4844 1.84261 50.9817 1.46278ZM46.6159 8.60154C46.4899 8.53214 46.3624 8.46506 46.2338 8.39953C45.5099 6.58645 44.5413 5.10806 43.7841 4.11328C46.9757 4.8806 49.4914 7.77677 50.1437 11.4403C49.171 10.3145 47.9798 9.35248 46.6159 8.60154ZM51.0298 14.9258L54.8459 18.7419L51.0298 22.5581L47.2136 18.7419L51.0298 14.9258ZM52.7178 14.625H53.0309C54.6917 14.625 56.2213 15.1972 57.4333 16.1547L55.8404 17.7476L52.7178 14.625ZM51.0298 24.5469L54.9797 28.4967L51.0298 32.4466L47.08 28.4967L51.0298 24.5469ZM46.0855 27.5024L42.2694 23.6862L46.2193 19.7364L50.0354 23.5525L46.0855 27.5024ZM48.9775 14.625H49.3418L46.2193 17.7475L44.6038 16.1321C45.8112 15.1883 47.3297 14.625 48.9775 14.625ZM41.8635 21.7389C41.8635 19.9695 42.513 18.349 43.586 17.103L45.2249 18.7419L41.8635 22.1032V21.7389ZM42.7223 30.8657C42.1748 29.8583 41.8636 28.7047 41.8636 27.4798V25.2693L45.0912 28.4968L42.7223 30.8657ZM48.8888 34.5878C48.8872 34.5893 48.8859 34.5911 48.8843 34.5926C46.737 34.5649 44.8161 33.5811 43.5288 32.048L46.0856 29.4912L50.0355 33.441L48.8888 34.5878ZM53.0309 34.5938H50.8715L55.9741 29.4912L58.5031 32.0202C57.1972 33.5915 55.229 34.5938 53.0309 34.5938ZM60.1448 27.4798C60.1448 28.6912 59.8401 29.8327 59.3039 30.8321L56.9685 28.4967L60.1448 25.3204V27.4798ZM58.4459 17.1308C59.5047 18.3731 60.1448 19.9825 60.1448 21.7389V23.3317L55.9741 27.5024L52.0242 23.5525L55.8404 19.7363L56.7202 20.616C56.8575 20.7533 57.0374 20.822 57.2173 20.822C57.3973 20.822 57.5772 20.7533 57.7145 20.616C57.9891 20.3415 57.9891 19.8963 57.7145 19.6216L56.8348 18.7419L58.4459 17.1308ZM56.7659 14.0823C55.6374 13.5296 54.3698 13.2188 53.0309 13.2188H52.253C53.2972 11.7269 54.7295 10.5147 56.4176 9.65447C56.5599 9.63309 56.6928 9.56798 56.7976 9.46863C58.0252 8.89404 59.3764 8.49952 60.8046 8.31312C59.6003 9.55167 57.9173 11.5619 56.7659 14.0823Z" fill="white"/>
<path d="M43.1697 10.6333L43.1615 10.6223C42.9289 10.3112 42.4884 10.2476 42.1773 10.4802C41.8663 10.7127 41.8027 11.1533 42.0352 11.4643L42.0434 11.4754C42.1816 11.6601 42.3929 11.7575 42.6071 11.7575C42.7536 11.7575 42.9013 11.712 43.0276 11.6175C43.3386 11.3849 43.4022 10.9443 43.1697 10.6333Z" fill="white"/>
<path d="M59.3025 21.2099C59.1718 21.0792 58.9904 21.0039 58.8055 21.0039C58.6205 21.004 58.4392 21.0792 58.3084 21.2099C58.1776 21.3407 58.1024 21.5221 58.1024 21.707C58.1024 21.892 58.1775 22.0734 58.3084 22.2041C58.4392 22.3349 58.6205 22.4102 58.8055 22.4102C58.9904 22.4102 59.1718 22.3349 59.3025 22.2041C59.4333 22.0734 59.5086 21.892 59.5086 21.707C59.5086 21.5221 59.4334 21.3407 59.3025 21.2099Z" fill="white"/>
<path d="M51.5013 18.3982C51.3705 18.2674 51.1891 18.1921 51.0042 18.1921C50.8193 18.1921 50.6379 18.2674 50.5071 18.3982C50.3763 18.5289 50.3011 18.7103 50.3011 18.896C50.3011 19.081 50.3763 19.2616 50.5071 19.3931C50.6379 19.5239 50.8193 19.5992 51.0042 19.5992C51.1891 19.5992 51.3698 19.5239 51.5013 19.3931C51.632 19.2616 51.7073 19.081 51.7073 18.896C51.7073 18.7104 51.6321 18.5297 51.5013 18.3982Z" fill="white"/>
<path d="M51.5013 28.1189C51.3705 27.9881 51.1891 27.9128 51.0042 27.9128C50.8193 27.9128 50.6379 27.9881 50.5071 28.1189C50.3763 28.2496 50.3011 28.431 50.3011 28.616C50.3011 28.8017 50.3763 28.9823 50.5071 29.1131C50.638 29.2439 50.8193 29.3191 51.0042 29.3191C51.1891 29.3191 51.3705 29.2446 51.5013 29.1131C51.632 28.9823 51.7073 28.8009 51.7073 28.616C51.7073 28.431 51.6321 28.2497 51.5013 28.1189Z" fill="white"/>
<path d="M46.5618 23.294C46.4311 23.1632 46.2497 23.0879 46.0648 23.0879C45.8798 23.0879 45.6984 23.1631 45.5676 23.294C45.4369 23.4247 45.3616 23.6061 45.3616 23.791C45.3616 23.976 45.4368 24.1573 45.5676 24.2881C45.6985 24.4189 45.8798 24.4941 46.0648 24.4941C46.2497 24.4941 46.4311 24.419 46.5618 24.2881C46.6926 24.1573 46.7679 23.976 46.7679 23.791C46.7679 23.6061 46.6926 23.4247 46.5618 23.294Z" fill="white"/>
<path d="M56.492 23.294C56.3612 23.1632 56.1797 23.0879 55.9949 23.0879C55.81 23.0879 55.6285 23.1631 55.4978 23.294C55.3671 23.4247 55.2917 23.6061 55.2917 23.791C55.2917 23.976 55.367 24.1573 55.4978 24.2881C55.6285 24.4189 55.81 24.4941 55.9949 24.4941C56.1798 24.4941 56.3612 24.419 56.492 24.2881C56.6228 24.1573 56.698 23.976 56.698 23.791C56.698 23.6061 56.6228 23.4247 56.492 23.294Z" fill="white"/>
<path d="M56.4914 31.9829C56.3606 31.8522 56.1792 31.7769 55.9943 31.7769C55.8087 31.7769 55.628 31.8521 55.4965 31.9829C55.3657 32.1137 55.2912 32.2951 55.2912 32.48C55.2912 32.6649 55.3657 32.8463 55.4965 32.9771C55.628 33.1079 55.8087 33.1831 55.9943 33.1831C56.1792 33.1831 56.3599 33.1079 56.4914 32.9771C56.6221 32.8456 56.6974 32.6649 56.6974 32.48C56.6974 32.2951 56.6222 32.1137 56.4914 31.9829Z" fill="white"/>
<path d="M46.5611 31.9829C46.4304 31.8522 46.2489 31.7769 46.064 31.7769C45.8783 31.7769 45.6976 31.8515 45.5662 31.9829C45.4354 32.1137 45.3609 32.2944 45.3609 32.48C45.3609 32.6649 45.4354 32.8463 45.5662 32.9771C45.6976 33.1079 45.8783 33.1831 46.064 33.1831C46.2489 33.1831 46.4304 33.1079 46.5611 32.9771C46.6918 32.8463 46.7664 32.6649 46.7664 32.48C46.7664 32.2944 46.6918 32.1137 46.5611 31.9829Z" fill="white"/>
<path d="M18.1141 113.397C18.1141 108.759 21.902 105 26.5749 105C31.2472 105 35.0354 108.759 35.0354 113.397C35.0354 118.034 31.2472 121.793 26.5749 121.793C21.902 121.793 18.1141 118.034 18.1141 113.397ZM30.6408 127.514C30.7256 125.685 31.3598 123.993 32.38 122.594C31.664 122.445 30.9239 122.366 30.1645 122.366H22.9863C22.2291 122.366 21.49 122.445 20.7776 122.592C21.8634 124.086 22.5129 125.912 22.5235 127.888C23.8433 127.167 25.3576 126.757 26.9662 126.757C28.271 126.757 29.5131 127.027 30.6408 127.514ZM32.0729 128.267C34.5303 129.797 36.2536 132.384 36.5688 135.388C37.5701 135.852 38.6828 136.12 39.8617 136.12C44.1669 136.12 47.6564 132.657 47.6564 128.384C47.6564 124.111 44.1669 120.648 39.8617 120.648C35.5959 120.648 32.1376 124.049 32.0729 128.267ZM26.966 144.108C31.2705 144.108 34.7603 140.643 34.7603 136.372C34.7603 132.1 31.2705 128.636 26.966 128.636C22.6612 128.636 19.17 132.1 19.17 136.372C19.1701 140.643 22.6612 144.108 26.966 144.108ZM30.2725 144.634H23.659C18.156 144.634 13.6779 149.078 13.6779 154.541V162.569L13.699 162.695L14.2557 162.867C19.5077 164.495 24.0704 165.039 27.8263 165.039C35.1605 165.039 39.4134 162.964 39.6754 162.831L40.1963 162.569H40.2516V154.541C40.2517 149.078 35.7762 144.634 30.2725 144.634ZM43.1699 136.648H36.6059C36.5347 139.255 35.4138 141.602 33.6411 143.29C38.5329 144.733 42.1119 149.235 42.1119 154.553V157.027C48.5915 156.79 52.3261 154.968 52.5721 154.846L53.0932 154.583H53.1484V146.553C53.1492 141.092 48.6715 136.648 43.1699 136.648ZM44.9244 120.483C47.382 122.013 49.1051 124.6 49.4196 127.604C50.421 128.068 51.5336 128.336 52.7125 128.336C57.0185 128.336 60.5078 124.873 60.5078 120.601C60.5078 116.327 57.0184 112.864 52.7125 112.864C48.4473 112.864 44.9893 116.266 44.9244 120.483ZM56.0199 128.864H49.4574C49.3861 131.471 48.2653 133.818 46.4927 135.505C51.3843 136.948 54.9633 141.451 54.9633 146.769V149.242C61.4423 149.006 65.1777 147.185 65.4237 147.061L65.944 146.799H66V138.768C66.0007 133.308 61.5231 128.864 56.0199 128.864ZM13.289 136.121C14.8139 136.121 16.2319 135.678 17.4344 134.926C17.8168 132.453 19.1529 130.291 21.0607 128.819C21.0687 128.674 21.0821 128.531 21.0821 128.384C21.0821 124.111 17.5916 120.648 13.289 120.648C8.98269 120.648 5.49365 124.111 5.49365 128.384C5.49365 132.658 8.98257 136.121 13.289 136.121ZM20.2892 143.29C18.5248 141.61 17.4078 139.276 17.3255 136.684C17.0829 136.667 16.8419 136.648 16.5938 136.648H9.98106C4.47731 136.648 0 141.092 0 146.553V154.583L0.0204376 154.708L0.577916 154.88C4.79028 156.188 8.55116 156.788 11.8176 156.976V154.552C11.8182 149.235 15.3964 144.733 20.2892 143.29Z" fill="white"/>
</svg>
