<svg width="149" height="145" viewBox="0 0 149 145" fill="none" xmlns="http://www.w3.org/2000/svg">
<g opacity="0.8" clip-path="url(#clip0)">
<path d="M89.0866 66.4547C85.272 62.6403 79.0652 62.6403 75.251 66.4547L69.4771 72.2287C67.9246 73.7813 65.3976 73.7815 63.8451 72.2287C62.2924 70.676 62.2924 68.1493 63.8449 66.5967L73.5788 56.863C75.4267 55.0152 76.4442 52.5584 76.4442 49.9451C76.4442 47.3319 75.4265 44.8751 73.5788 43.0275C69.7644 39.2127 63.5576 39.2131 59.7432 43.0275L46.685 56.0857C46.5052 55.9695 46.3192 55.8623 46.1276 55.7643V55.5974V48.6674V48.5008C48.1954 47.444 49.6119 45.2949 49.6119 42.8133C49.6119 40.3317 48.1954 38.1825 46.1276 37.1258V30.2921H53.651L55.5753 21.7336H49.2851L50.5008 10H35.9536L37.1692 21.734H30.8791L32.8034 30.2925H40.3268V37.1262C38.259 38.1829 36.8423 40.3321 36.8423 42.8137C36.8423 45.2952 38.259 47.4444 40.3268 48.5011V48.6678V55.5978V55.7645C38.259 56.8212 36.8423 58.9704 36.8423 61.452C36.8423 62.1715 36.9631 62.8623 37.1826 63.5078H34.6722V69.3085H37.8495V77.1908C31.4574 79.4152 26.8698 85.4927 26.8698 92.6426V103.199H22V109H64.4546V103.199H59.5846V92.6426C59.5846 85.4927 54.9968 79.4152 48.6049 77.1908V69.3085H51.7824V63.5078H49.272C49.4914 62.8625 49.6121 62.1715 49.6121 61.452C49.6121 61.4226 49.6104 61.3938 49.61 61.3646L63.8451 47.1294C65.3982 45.5768 67.9248 45.5768 69.4773 47.1294C70.2294 47.8816 70.6436 48.8817 70.6436 49.9453C70.6436 51.009 70.2292 52.0091 69.4773 52.7614L59.7434 62.4951C55.929 66.3095 55.929 72.5162 59.7434 76.3308C63.5578 80.1454 69.7646 80.145 73.579 76.3308L79.3529 70.5569C80.9054 69.0042 83.4324 69.004 84.9849 70.5569C86.5376 72.1095 86.5376 74.6362 84.9851 76.1889L81.2619 79.912L78.988 77.6381L74.8863 81.74L77.1602 84.0139L73.2545 87.919L77.3563 92.0207L81.2617 88.1152L83.5356 90.3892L87.6374 86.2872L85.3635 84.0133L89.0866 80.2902C92.901 76.476 92.901 70.2693 89.0866 66.4547Z" fill="#76B9AD"/>
</g>
<g opacity="0.8" clip-path="url(#clip1)">
<path d="M139.087 66.4547C135.272 62.6403 129.065 62.6403 125.251 66.4547L119.477 72.2287C117.925 73.7813 115.398 73.7815 113.845 72.2287C112.292 70.676 112.292 68.1493 113.845 66.5967L123.579 56.863C125.427 55.0152 126.444 52.5584 126.444 49.9451C126.444 47.3319 125.427 44.8751 123.579 43.0275C119.764 39.2127 113.558 39.2131 109.743 43.0275L96.685 56.0857C96.5052 55.9695 96.3192 55.8623 96.1276 55.7643V55.5974V48.6674V48.5008C98.1954 47.444 99.6119 45.2949 99.6119 42.8133C99.6119 40.3317 98.1954 38.1825 96.1276 37.1258V30.2921H103.651L105.575 21.7336H99.2851L100.501 10H85.9536L87.1692 21.734H80.8791L82.8034 30.2925H90.3268V37.1262C88.259 38.1829 86.8423 40.3321 86.8423 42.8137C86.8423 45.2952 88.259 47.4444 90.3268 48.5011V48.6678V55.5978V55.7645C88.259 56.8212 86.8423 58.9704 86.8423 61.452C86.8423 62.1715 86.9631 62.8623 87.1826 63.5078H84.6722V69.3085H87.8495V77.1908C81.4574 79.4152 76.8698 85.4927 76.8698 92.6426V103.199H72V109H114.455V103.199H109.585V92.6426C109.585 85.4927 104.997 79.4152 98.6049 77.1908V69.3085H101.782V63.5078H99.272C99.4914 62.8625 99.6121 62.1715 99.6121 61.452C99.6121 61.4226 99.6104 61.3938 99.61 61.3646L113.845 47.1294C115.398 45.5768 117.925 45.5768 119.477 47.1294C120.229 47.8816 120.644 48.8817 120.644 49.9453C120.644 51.009 120.229 52.0091 119.477 52.7614L109.743 62.4951C105.929 66.3095 105.929 72.5162 109.743 76.3308C113.558 80.1454 119.765 80.145 123.579 76.3308L129.353 70.5569C130.905 69.0042 133.432 69.004 134.985 70.5569C136.538 72.1095 136.538 74.6362 134.985 76.1889L131.262 79.912L128.988 77.6381L124.886 81.74L127.16 84.0139L123.255 87.919L127.356 92.0207L131.262 88.1152L133.536 90.3892L137.637 86.2872L135.363 84.0133L139.087 80.2902C142.901 76.476 142.901 70.2693 139.087 66.4547Z" fill="#FA3E3E"/>
</g>
<path d="M55.2862 82.2092C55.2862 76.5709 59.8474 72 65.4744 72C71.1007 72 75.6624 76.5709 75.6624 82.2092C75.6624 87.8474 71.1007 92.4182 65.4744 92.4182C59.8474 92.4183 55.2862 87.8474 55.2862 82.2092ZM70.3704 99.3737C70.4726 97.1506 71.2363 95.0931 72.4648 93.3921C71.6026 93.2111 70.7114 93.115 69.797 93.115H61.1531C60.2413 93.115 59.3513 93.2104 58.4935 93.3891C59.801 95.2064 60.583 97.4259 60.5958 99.8286C62.1851 98.9526 64.0086 98.4539 65.9456 98.4539C67.5168 98.4539 69.0126 98.7819 70.3704 99.3737ZM72.0949 100.29C75.0541 102.15 77.1293 105.295 77.5088 108.948C78.7146 109.513 80.0545 109.838 81.474 109.838C86.6582 109.838 90.8602 105.627 90.8602 100.432C90.8602 95.2363 86.6582 91.0258 81.474 91.0258C76.3373 91.0259 72.1729 95.1617 72.0949 100.29ZM65.9455 119.55C71.1288 119.55 75.3311 115.338 75.3311 110.144C75.3311 104.95 71.1288 100.738 65.9455 100.738C60.7617 100.738 56.5576 104.95 56.5576 110.144C56.5578 115.338 60.7617 119.55 65.9455 119.55ZM69.927 120.19H61.9632C55.3366 120.19 49.9442 125.594 49.9442 132.235V141.997L49.9696 142.15L50.64 142.359C56.9643 144.338 62.4586 145 66.9813 145C75.813 145 80.9342 142.476 81.2497 142.315L81.877 141.997H81.9436V132.235C81.9437 125.594 76.5545 120.19 69.927 120.19ZM85.4577 110.48H77.5536C77.4677 113.65 76.118 116.504 73.9834 118.555C79.8739 120.311 84.1837 125.784 84.1837 132.25V135.258C91.9863 134.97 96.4834 132.755 96.7796 132.606L97.4071 132.286H97.4736V122.523C97.4745 115.883 92.0826 110.48 85.4577 110.48ZM49.4759 109.839C51.3122 109.839 53.0196 109.301 54.4677 108.386C54.9281 105.379 56.537 102.75 58.8344 100.961C58.844 100.785 58.8602 100.61 58.8602 100.432C58.8602 95.2364 54.657 91.0259 49.4759 91.0259C44.2904 91.0259 40.0889 95.2363 40.0889 100.432C40.0889 105.628 44.2902 109.839 49.4759 109.839ZM57.9054 118.555C55.7808 116.514 54.4356 113.675 54.3366 110.524C54.0444 110.502 53.7543 110.48 53.4555 110.48H45.4926C38.8651 110.48 33.4736 115.883 33.4736 122.524V132.286L33.4982 132.438L34.1695 132.648C39.242 134.237 43.7707 134.968 47.7041 135.196V132.249C47.7048 125.784 52.0136 120.31 57.9054 118.555Z" fill="white"/>
<defs>
<clipPath id="clip0">
<rect width="99" height="99" fill="white"/>
</clipPath>
<clipPath id="clip1">
<rect width="99" height="99" fill="white" transform="translate(50)"/>
</clipPath>
</defs>
</svg>
