<svg width="123" height="127" viewBox="0 0 123 127" fill="none" xmlns="http://www.w3.org/2000/svg">
<g opacity="0.8">
<path d="M105.613 56.4547C101.798 52.6403 95.5915 52.6403 91.7773 56.4547L86.0034 62.2287C84.4509 63.7813 81.9239 63.7815 80.3714 62.2287C78.8187 60.676 78.8187 58.1493 80.3712 56.5967L90.1051 46.863C91.953 45.0152 92.9705 42.5584 92.9705 39.9451C92.9705 37.3319 91.9529 34.8751 90.1051 33.0275C86.2907 29.2127 80.0839 29.2131 76.2695 33.0275L63.2113 46.0857C63.0315 45.9695 62.8455 45.8623 62.6539 45.7643V45.5974V38.6674V38.5008C64.7217 37.444 66.1382 35.2949 66.1382 32.8133C66.1382 30.3317 64.7217 28.1825 62.6539 27.1258V20.2921H70.1773L72.1016 11.7336H65.8114L67.0271 0H52.4799L53.6955 11.734H47.4054L49.3297 20.2925H56.8531V27.1262C54.7853 28.1829 53.3686 30.3321 53.3686 32.8137C53.3686 35.2952 54.7853 37.4444 56.8531 38.5011V38.6678V45.5978V45.7645C54.7853 46.8212 53.3686 48.9704 53.3686 51.452C53.3686 52.1715 53.4894 52.8623 53.7089 53.5078H51.1985V59.3085H54.3758V67.1908C47.9837 69.4152 43.3961 75.4927 43.3961 82.6426V93.1992H38.5263V99H80.9809V93.1992H76.1109V82.6426C76.1109 75.4927 71.5231 69.4152 65.1312 67.1908V59.3085H68.3087V53.5078H65.7983C66.0178 52.8625 66.1384 52.1715 66.1384 51.452C66.1384 51.4226 66.1367 51.3938 66.1363 51.3646L80.3714 37.1294C81.9245 35.5768 84.4511 35.5768 86.0036 37.1294C86.7557 37.8816 87.1699 38.8817 87.1699 39.9453C87.1699 41.009 86.7555 42.0091 86.0036 42.7614L76.2697 52.4951C72.4553 56.3095 72.4553 62.5162 76.2697 66.3308C80.0841 70.1454 86.2909 70.145 90.1053 66.3308L95.8792 60.5569C97.4317 59.0042 99.9587 59.004 101.511 60.5569C103.064 62.1095 103.064 64.6362 101.511 66.1889L97.7882 69.912L95.5143 67.6381L91.4126 71.74L93.6865 74.0139L89.7808 77.919L93.8826 82.0207L97.788 78.1152L100.062 80.3892L104.164 76.2872L101.89 74.0133L105.613 70.2902C109.427 66.476 109.427 60.2693 105.613 56.4547Z" fill="#76B9AD"/>
</g>
<path d="M38.6213 81.3163C41.5805 83.1864 43.6556 86.3495 44.0352 90.0227C45.2409 90.5906 46.5809 90.9183 48.0004 90.9183C53.1846 90.9183 57.3866 86.6832 57.3866 81.459C57.3866 76.2341 53.1846 72 48.0004 72C42.8636 72.0001 38.6993 76.1591 38.6213 81.3163ZM32.4718 100.685C37.6551 100.685 41.8574 96.4483 41.8574 91.2256C41.8574 86.0021 37.6551 81.7666 32.4718 81.7666C27.2881 81.7666 23.084 86.0019 23.084 91.2256C23.0841 96.4483 27.2881 100.685 32.4718 100.685ZM36.4534 101.328H28.4895C21.863 101.328 16.4706 106.762 16.4706 113.441V123.257L16.496 123.411L17.1664 123.621C23.4906 125.612 28.985 126.277 33.5077 126.277C42.3394 126.277 47.4606 123.739 47.7761 123.577L48.4034 123.257H48.4699V113.441C48.4701 106.762 43.0808 101.328 36.4534 101.328ZM51.984 91.5639H44.0799C43.9941 94.751 42.6444 97.621 40.5098 99.684C46.4003 101.449 50.7101 106.954 50.7101 113.456V116.481C58.5126 116.191 63.0098 113.964 63.306 113.814L63.9334 113.492H64V103.674C64.0009 96.9968 58.609 91.5639 51.984 91.5639ZM16.0023 90.9184C17.8386 90.9184 19.546 90.3779 20.994 89.4577C21.4545 86.4336 23.0634 83.7905 25.3607 81.9912C25.3704 81.8137 25.3865 81.6384 25.3865 81.4591C25.3865 76.2343 21.1833 72.0001 16.0023 72.0001C10.8167 72.0001 6.61531 76.2341 6.61531 81.4591C6.61531 86.6843 10.8166 90.9184 16.0023 90.9184ZM24.4318 99.684C22.3071 97.6309 20.962 94.7765 20.863 91.6079C20.5708 91.586 20.2806 91.5639 19.9819 91.5639H12.0189C5.39146 91.5639 0 96.9968 0 103.675V113.492L0.0246104 113.645L0.695912 113.856C5.76833 115.454 10.2971 116.189 14.2305 116.419V113.455C14.2312 106.954 18.5399 101.448 24.4318 99.684Z" fill="white"/>
</svg>
