<svg width="414" height="479" viewBox="0 0 414 479" fill="none" xmlns="http://www.w3.org/2000/svg">
<path d="M-15.0978 142.427C3.84732 143.469 22.5696 152.572 36.054 170.706C38.32 173.764 39.7688 177.582 40.7532 181.258C41.8676 185.465 39.1558 190.184 35.3482 191.881C31.262 193.684 26.4329 194.214 22.8482 189.813C18.5391 184.546 14.3414 179.208 10.2181 173.817C2.99294 164.361 -6.88823 159.147 -18.7939 156.955C-29.028 155.082 -38.7792 156.867 -47.8803 161.038C-73.2519 172.668 -88.7423 192.005 -93.72 218.216C-97.7505 239.497 -81.2757 260.477 -58.8387 264.224C-51.0935 265.514 -43.6826 264.312 -36.9775 260.371C-30.5882 256.606 -25.5733 251.427 -22.1372 245.047C-17.5123 236.457 -18.8311 228.733 -26.112 222.017C-29.5481 218.853 -33.3371 216.025 -36.9218 212.985C-38.8535 211.359 -40.878 209.786 -42.4753 207.877C-45.67 204.059 -45.7629 200.117 -43.1254 196.158C-40.4322 192.093 -36.1046 190.184 -31.2754 191.262C-28.9723 191.775 -26.5763 192.517 -24.6075 193.719C-12.9061 200.842 -4.32505 210.245 -2.82059 223.872C-2.30052 228.645 -2.74632 233.806 -4.12077 238.419C-8.00266 251.569 -16.1936 262.05 -28.2108 269.58C-42.5868 278.576 -57.6128 279.018 -72.8989 271.665C-81.4057 267.565 -88.7051 261.891 -94.7044 254.839C-106.201 241.335 -108.95 225.905 -103.638 209.662C-94.8344 182.831 -77.5609 162.258 -50.9263 149.408C-41.0637 144.654 -29.7524 142.391 -15.0978 142.427Z" fill="#76B9AD"/>
<path d="M-19.9826 103.1C-30.4953 103.153 -40.6365 101.12 -49.9791 96.6838C-78.0067 83.3923 -96.1903 61.9704 -104.307 33.3725C-109.47 15.1497 -104.288 -1.19954 -89.6895 -14.2082C-84.6189 -18.733 -78.8796 -22.8336 -72.7689 -25.9443C-57.6685 -33.6329 -42.5496 -32.8729 -28.1736 -23.8941C-16.6579 -16.7004 -8.72695 -6.66107 -4.49216 5.76436C0.392708 20.081 -3.09915 32.8599 -13.7976 43.8007C-18.2367 48.3254 -23.3073 52.1255 -29.7152 53.9814C-35.3616 55.6251 -40.0793 54.0697 -43.1811 49.5096C-46.1529 45.1263 -45.7442 40.8666 -41.2494 36.6777C-36.9032 32.6302 -32.0183 29.1128 -27.5607 25.1537C-18.0324 16.7051 -16.8436 7.7086 -24.1245 -2.59584C-31.7211 -13.3422 -41.8995 -19.9879 -56.1269 -18.9451C-75.685 -17.5134 -93.6828 0.373516 -94.11 19.0382C-94.2215 24.4113 -93.7014 30.0319 -92.0855 35.14C-85.4733 55.8372 -72.4532 72.0451 -52.4122 82.5616C-40.5808 88.7655 -27.8949 91.2753 -14.4662 87.7404C-4.13925 85.0184 4.29319 79.769 10.5525 71.3381C14.6016 65.8942 18.9478 60.6625 23.2383 55.3954C25.0771 53.1507 27.6217 52.3906 30.612 52.5674C37.3171 52.9916 42.0905 58.1703 40.7161 64.4449C39.9546 67.9622 38.3944 71.5679 36.2955 74.5549C25.6714 89.6139 10.5339 98.3629 -7.9097 102.181C-9.89708 102.587 -11.9031 102.905 -13.9276 103.047C-15.915 103.224 -17.958 103.1 -19.9826 103.1Z" fill="#76B9AD"/>
<path d="M429.221 142.338C443.393 142.621 454.555 145.06 464.734 150.38C491.164 164.202 508.53 185.129 516.09 212.879C520.919 230.589 515.774 246.213 502.197 259.24C496.42 264.79 489.957 269.473 482.472 272.655C466.814 279.301 451.695 278.117 438.043 268.183C425.32 258.904 416.516 247.009 414.678 231.331C414.009 225.64 414.826 220.09 417.148 214.805C421.42 205.013 428.738 197.731 438.489 192.8C444.674 189.671 449.801 190.502 453.645 194.603C457.509 198.721 457.824 203.723 454.091 207.983C452.104 210.245 449.522 212.048 447.237 214.08C443.597 217.315 439.715 220.337 436.39 223.855C430.911 229.634 430.094 236.262 433.381 243.456C439.641 257.136 452.791 265.426 467.278 264.631C486.521 263.588 505.076 245.506 505.93 227.124C506.394 217.209 503.906 207.912 499.281 199.163C489.4 180.463 475.358 165.881 453.942 158.899C438.693 153.933 424.503 156.107 411.26 164.679C406.245 167.914 402.846 172.509 399.392 177.069C396.383 181.064 393.467 185.147 390.142 188.894C386.056 193.507 382.007 194.249 376.899 191.969C372.59 190.043 370.287 185.765 371.568 180.392C372.367 177.052 373.834 173.623 375.896 170.83C389.436 152.501 408.307 143.346 429.221 142.338Z" fill="#76B9AD"/>
<path d="M428.069 103.277C407.935 102.093 389.287 92.9017 375.747 74.8203C372.924 71.0556 370.955 66.9197 371.326 62.0591C371.642 58.0292 373.406 55.0068 377.456 53.4338C381.95 51.6663 385.851 52.1258 388.99 55.7138C393.466 60.8218 397.552 66.2657 401.657 71.6742C409.235 81.6782 419.599 87.0337 432.248 88.8365C443.726 90.4803 454.406 87.8114 464.194 82.4912C485.833 70.7374 499.856 53.1863 505.038 29.9085C510.109 7.12562 493.968 -14.8442 469.841 -18.6797C461.26 -20.0406 453.255 -18.1318 446.252 -13.2182C440.662 -9.29434 436.464 -4.18629 433.529 1.84084C429.889 9.33498 430.781 16.2989 436.613 22.379C439.956 25.861 443.856 28.8834 447.497 32.1002C449.651 34.0091 452.066 35.7236 453.96 37.8445C457.359 41.6446 457.471 45.4624 454.778 49.4923C452.029 53.6105 447.701 55.4664 442.946 54.4235C441.349 54.07 439.733 53.5221 438.284 52.7798C419.005 42.9879 408.734 23.5986 417.63 2.51249C421.995 -7.82731 428.942 -16.4526 438.451 -22.9747C451.843 -32.1479 466.349 -33.5796 481.449 -27.3934C492.538 -22.8509 501.62 -15.675 508.604 -6.30728C518.392 6.82514 520.231 21.4776 515.198 36.4305C506.264 62.9959 489.046 83.4457 462.597 96.1892C452.827 100.926 442.222 103.242 428.069 103.277Z" fill="#76B9AD"/>
<path d="M226.935 345.387C226.842 335.1 227.845 327.465 230.78 320.148C236.259 306.503 244.747 295.049 257.916 287.078C261.556 284.868 265.401 283.26 269.859 283.508C274.447 283.755 277.901 285.947 279.238 289.729C280.613 293.671 280.539 297.435 276.75 300.246C271.809 303.904 266.906 307.669 261.686 310.974C253.365 316.241 247.589 323.294 244.171 332.131C240.438 341.729 240.587 351.432 243.689 361.118C246.976 371.387 252.66 380.383 260.591 388.001C272.125 399.048 285.386 407.408 301.583 410.926C326.397 416.316 350.487 401.399 354.648 378.156C357.582 361.683 345.602 344.663 328.459 341.022C322.441 339.749 316.962 341.075 312.467 344.945C308.659 348.233 305.297 351.998 301.768 355.586C299.632 357.76 297.719 360.181 295.36 362.125C292.203 364.724 288.507 365.59 284.588 363.539C280.39 361.348 277.604 358.184 278.198 353.376C278.477 351.167 279.127 348.834 280.223 346.89C290.903 328.101 312.355 318.734 334.755 328.684C345.008 333.245 353.645 339.873 360.127 348.622C371.345 363.769 370.287 381.85 358.845 397.369C356.096 401.098 352.994 404.651 349.633 407.886C336.148 420.947 319.859 425.56 301.007 421.813C277.4 417.112 240.531 393.922 230.464 360.994C228.7 355.108 227.752 349.011 226.935 345.387Z" fill="#76B9AD"/>
<path d="M185.757 339.219C185.181 359.28 178.216 375.399 165.438 389.185C153.55 402.017 139.36 412.021 122.625 418.473C111.648 422.715 100.263 424.411 88.4684 421.955C87.0196 421.654 85.5709 421.354 84.1965 420.876C64.4155 413.842 51.9154 400.197 46.0462 381.249C42.3314 369.23 45.4332 357.866 53.0484 347.773C60.125 338.423 69.449 331.565 80.7232 327.412C104.312 318.751 123.963 331.336 132.618 347.915C135.868 354.136 134.42 359.368 129.07 362.779C125.504 365.059 121.752 365.448 118.242 362.974C115.902 361.33 113.951 359.174 111.908 357.159C107.711 352.987 103.847 348.463 99.3154 344.627C93.6876 339.855 86.9825 339.519 80.0916 342.135C58.6019 350.265 50.6896 373.366 63.1525 391.89C70.9534 403.467 81.689 410.837 96.4551 412.039C103.94 412.658 111.258 411.438 118.186 408.911C140.14 400.886 156.987 387.312 166.756 366.668C176.117 346.889 170.861 324.619 151.73 311.84C146.604 308.411 141.422 305 136.63 301.165C131.559 297.099 130.946 293.547 133.565 288.633C135.645 284.709 140.437 282.518 145.917 283.826C149.409 284.656 152.956 286.159 155.909 288.121C175.003 300.917 184.791 318.574 185.757 339.219Z" fill="#76B9AD"/>
<path d="M383.659 259.01C383.734 276.614 368.392 291.002 349.558 291.019C331.449 291.019 316.478 276.738 316.367 259.364C316.256 241.512 331.244 227.178 350.115 227.125C368.373 227.036 383.585 241.512 383.659 259.01ZM370.286 259.028C370.305 248.794 360.981 239.904 350.152 239.833C339.343 239.762 329.573 248.511 329.74 258.727C329.907 269.102 337.151 277.816 350.097 278.011C361.185 278.17 370.286 269.385 370.286 259.028Z" fill="#76B9AD"/>
<path d="M349.781 18.137C331.208 18.084 316.33 3.66128 316.33 -14.2964C316.33 -31.6354 331.579 -45.7576 350.209 -45.6693C368.949 -45.5809 383.808 -31.1935 383.697 -13.3066C383.585 3.09568 368.596 18.6849 349.781 18.137ZM350.097 -32.855C338.99 -32.9964 329.703 -24.5125 329.648 -14.1727C329.592 -3.8152 338.711 5.07526 349.558 5.21666C360.87 5.37573 370.119 -3.16124 370.268 -13.9076C370.398 -24.212 361.371 -32.6959 350.097 -32.855Z" fill="#76B9AD"/>
<path d="M29.9429 258.55C30.0172 241.176 44.8576 227.195 63.2455 227.142C81.9677 227.089 96.8452 241.423 96.808 259.487C96.7709 276.773 81.2805 291.143 62.874 290.984C44.579 290.842 29.8686 276.331 29.9429 258.55ZM83.3421 259.363C83.3793 248.617 74.6683 240.133 63.5055 240.063C52.2127 239.992 43.4274 248.264 43.3531 259.01C43.2788 269.544 52.3985 278.223 63.4498 278.152C74.2782 278.099 83.305 269.562 83.3421 259.363Z" fill="#76B9AD"/>
<path d="M-23.0104 372.482C-41.4726 372.429 -56.3129 358.148 -56.3872 340.491C-56.4429 325.149 -43.1628 308.535 -22.0631 308.941C-3.56379 309.295 11.1466 323.382 11.1094 341.18C11.0537 358.413 -4.34385 372.553 -23.0104 372.482ZM-22.5832 321.685C-34.1174 321.72 -43.0142 330.222 -42.847 341.039C-42.6798 351.538 -33.7459 359.739 -22.4346 359.721C-11.4018 359.704 -2.17076 350.937 -2.37507 340.65C-2.59795 330.081 -11.5505 321.65 -22.5832 321.685Z" fill="#76B9AD"/>
<path d="M29.9616 -14.4378C30.1102 -31.9005 45.2291 -45.8106 63.8956 -45.6869C82.3578 -45.5632 96.9381 -31.2112 96.7524 -13.448C96.5667 4.66877 80.6491 18.4728 62.5026 18.3138C44.5605 18.137 29.813 3.18409 29.9616 -14.4378ZM83.3051 -13.7838C83.3051 -24.5124 74.7055 -32.7312 63.3942 -32.7843C52.2314 -32.855 43.3532 -24.4948 43.3347 -13.9252C43.3161 -3.39098 52.3614 5.34042 63.227 5.25204C74.3341 5.16367 83.3051 -3.33795 83.3051 -13.7838Z" fill="#76B9AD"/>
<path d="M469.34 340.827C469.359 358.431 454.481 372.465 435.815 372.5C417.241 372.536 402.475 358.378 402.549 340.615C402.623 322.622 417.408 308.906 436.65 308.959C454.816 309.03 469.34 323.187 469.34 340.827ZM436.335 321.65C425.079 321.632 416.071 330.01 416.015 340.526C415.959 351.255 424.633 359.598 435.963 359.704C447.052 359.81 456.041 351.255 455.986 340.615C455.93 330.222 447.052 321.667 436.335 321.65Z" fill="#76B9AD"/>
<path d="M136.314 442.988C136.296 438.498 138.283 434.751 141.571 431.747C144.208 429.343 147.161 427.169 150.226 425.224C160.2 418.897 170.267 412.711 180.315 406.471C183.937 404.227 187.41 404.227 189.936 406.418C192.369 408.539 192.76 411.297 190.716 415.097C184.754 426.197 178.718 437.261 172.626 448.273C170.378 452.355 167.462 455.961 163.246 458.453C159.067 460.91 154.628 461.705 150.04 459.867C144.041 457.481 135.553 450.588 136.314 442.988Z" fill="#76B9AD"/>
<path d="M228.997 404.757C229.684 405.022 231.337 405.358 232.656 406.189C243.614 413.029 254.591 419.834 265.383 426.904C268.522 428.972 271.363 431.623 273.796 434.433C276.88 437.986 278.031 442.369 276.341 446.823C273.685 453.876 268.522 458.825 260.758 460.415C253.384 461.935 247.942 458.383 243.781 452.868C242.277 450.871 240.958 448.75 239.77 446.576C234.309 436.607 228.904 426.621 223.555 416.599C222.738 415.062 221.939 413.382 221.697 411.703C221.122 407.691 223.796 404.916 228.997 404.757Z" fill="#76B9AD"/>
<path d="M206.745 478.107C192.072 479.009 186.983 467.591 189.212 458.329C192.499 444.649 196.288 431.057 200.022 417.465C201.062 413.7 203.142 412.357 206.727 412.339C210.404 412.339 212.318 413.541 213.395 417.412C217.017 430.297 220.453 443.235 223.945 456.173C224.223 457.18 224.242 458.259 224.409 459.301C225.951 469.164 220.193 478.956 206.745 478.107Z" fill="#76B9AD"/>
<path d="M20.8603 288.686C27.7697 288.881 32.6174 293.883 32.2645 300.387C31.9488 306.149 26.5253 310.762 20.3217 310.55C13.9509 310.356 8.93608 305.141 9.21468 299.026C9.47471 293.07 14.601 288.509 20.8603 288.686Z" fill="#76B9AD"/>
<path d="M206.875 348.18C200.17 348.25 195.007 343.69 194.933 337.628C194.84 331.618 199.985 326.864 206.634 326.829C213.358 326.776 218.558 331.371 218.595 337.363C218.595 343.478 213.562 348.127 206.875 348.18Z" fill="#76B9AD"/>
<path d="M404.09 299.786C404.053 306.008 399.02 310.55 392.37 310.409C386.018 310.267 381.338 305.707 381.375 299.645C381.412 293.229 386.074 288.81 392.835 288.775C399.41 288.722 404.146 293.352 404.09 299.786Z" fill="#76B9AD"/>
<path d="M217.63 387.595C217.555 393.357 212.243 398.624 206.578 398.571C201.043 398.518 195.639 392.95 195.676 387.33C195.713 381.55 201.025 376.46 206.894 376.548C213.042 376.654 217.723 381.462 217.63 387.595Z" fill="#76B9AD"/>
</svg>
